<svg version="1.1" xmlns="http://www.w3.org/2000/svg" viewBox="0 0 1380.4325585743738 625.7143075125557" width="1380.4325585743738" height="625.7143075125557">
  <!-- svg-source:excalidraw -->
  
  <defs>
    <style class="style-fonts">
      @font-face {
        font-family: "Virgil";
        src: url("https://excalidraw.com/Virgil.woff2");
      }
      @font-face {
        font-family: "Cascadia";
        src: url("https://excalidraw.com/Cascadia.woff2");
      }
    </style>
  </defs>
  <rect x="0" y="0" width="1380.4325585743738" height="625.7143075125557" fill="#ffffff"></rect><g stroke-linecap="round" transform="translate(10 26.91878642733161) rotate(0 161.59999084472653 222.40001678466797)"><path d="M32 0 M32 0 C90.53 2.44, 148.81 1.82, 291.2 0 M32 0 C95.69 0.4, 159.64 1.34, 291.2 0 M291.2 0 C314.48 0.83, 322.99 10.22, 323.2 32 M291.2 0 C312.3 1.43, 321.47 10.39, 323.2 32 M323.2 32 C322.01 121.67, 321.75 213.15, 323.2 412.8 M323.2 32 C322.99 174.4, 323.37 316.08, 323.2 412.8 M323.2 412.8 C324.07 435.07, 313.99 443.93, 291.2 444.8 M323.2 412.8 C321.13 432.72, 313.77 446.52, 291.2 444.8 M291.2 444.8 C216.08 444.99, 138.19 444.84, 32 444.8 M291.2 444.8 C235.8 444.42, 180.97 445.5, 32 444.8 M32 444.8 C8.68 443.63, -1.37 435.19, 0 412.8 M32 444.8 C10.5 443.03, 1.89 434.12, 0 412.8 M0 412.8 C-1.9 275.16, -1.26 135.71, 0 32 M0 412.8 C0.11 303.2, 0.34 193.39, 0 32 M0 32 C-1.53 12.39, 9.85 0.95, 32 0 M0 32 C1.13 9.35, 8.64 -0.92, 32 0" stroke="#000000" stroke-width="1" fill="none"></path></g><g transform="translate(56.399993896484375 37.91877116854255) rotate(0 110 12.5)"><text x="0" y="18" font-family="Virgil, Segoe UI Emoji" font-size="20px" fill="#000000" text-anchor="start" style="white-space: pre;" direction="ltr">Document Tree (DOM)</text></g><g stroke-linecap="round" transform="translate(126.00003051757812 100.5188077896363) rotate(0 46 45)"><path d="M6.07 22.5 C6.07 22.5, 6.07 22.5, 6.07 22.5 M6.07 22.5 C6.07 22.5, 6.07 22.5, 6.07 22.5 M4.06 30.66 C8.23 25.56, 12.43 21.74, 25.9 5.61 M4.31 30.69 C10.39 23.98, 16.31 17.04, 25.88 5.13 M-0.27 41.76 C12.07 29.19, 20.02 18.53, 29.92 5.13 M2.36 39.66 C11.14 27.71, 21.78 15.78, 32.52 4.91 M1.28 48.59 C8.97 39.45, 16.74 28.82, 37.4 5.13 M0.92 46.81 C10.71 34.61, 20.68 23.4, 37.75 3.83 M2.81 52.64 C15.87 34.78, 29.2 22.8, 44.44 3.11 M1.85 51.75 C15.06 34.8, 29.81 20.41, 45.1 3.28 M2.43 55.81 C22.27 34.61, 38.62 12.32, 49.91 1.49 M2.74 55.2 C15.72 41.84, 28.3 26.24, 50.31 2.43 M4.97 60.35 C23.01 39.13, 40.43 17.11, 53.7 1.8 M5.34 61.12 C21.25 41.66, 34.68 26.14, 55.33 2.78 M4.23 63.69 C18.15 51.06, 33.15 36.72, 58.67 5.45 M5.59 65.81 C22.33 45.76, 37.46 28.83, 58.1 5.08 M9.73 70.86 C27.91 45.28, 46.3 25.28, 61.72 8.26 M8.14 68.63 C24.25 50.42, 38.56 34.29, 63.25 6.19 M8.33 73.56 C33.21 48.36, 51.79 24.18, 66.49 6.67 M9.63 73.21 C27.21 53.56, 45.69 32.79, 66.63 7.49 M14.95 75.11 C25.93 61.59, 39.13 45.29, 71.58 10.31 M13.29 74.76 C33.8 52.78, 52.78 29.28, 71.28 9.68 M17.5 77.74 C33.95 55.08, 51.89 34.28, 74.01 9.63 M15.51 77.55 C34.82 54.34, 55.64 31.78, 74.59 10.76 M19.64 79.56 C31.28 65.84, 45.74 49.9, 77.48 13.04 M18.38 80.14 C36.59 62.77, 52.33 43.68, 78.38 13.31 M21.63 81.82 C37.59 62.94, 55.05 46.62, 78.37 15.04 M22.35 82.91 C39.06 64.74, 56.19 45.34, 80.57 16.93 M25.86 87.43 C46.21 63.5, 67.98 39.13, 81.39 22.05 M25.41 84.77 C44.39 65.56, 62.04 44.42, 82.65 20.28 M30.32 87.4 C41.28 73.24, 53.01 62.2, 82.33 24.85 M28.38 87.96 C49.93 64.46, 70.88 40.7, 84.13 23.82 M32.08 89.16 C52.88 66.13, 67.66 45.43, 85.61 25.65 M34.13 88.49 C46.7 75.3, 58.59 59.55, 85.88 27.1 M38.87 89.78 C55.64 66.49, 73.86 48.13, 88.43 29.51 M38.9 89.73 C53.68 73.15, 66.57 56.61, 87.99 30.43 M44.51 87.71 C61.69 67.89, 75.76 50.59, 90.25 34.91 M43.47 90.3 C56.08 75.68, 68.29 60, 91.05 33.71 M48.44 91.56 C62.01 73.56, 76.76 58.91, 93.03 38.23 M48.44 89.17 C57.44 79.82, 66.48 69.27, 92.09 39.14 M53.84 89.8 C67.76 76.22, 78.6 61.68, 91.24 45.96 M54.15 89.57 C66.08 75.75, 77.17 62.3, 92.36 45.7 M62.48 83.79 C72.53 74.31, 83.4 64.88, 92.86 51.49 M63.2 84.31 C69.14 77.45, 74.86 70.1, 92.08 52.19 M72.34 79.33 C76.53 73.54, 84.04 64.42, 93.46 56.35 M71.9 81.5 C76.48 76.39, 79.44 70.83, 92.28 56.71" stroke="#4c6ef5" stroke-width="0.5" fill="none"></path><path d="M51.65 0.85 C59.5 1.1, 69.01 4.54, 75.21 9.65 C81.41 14.76, 86.46 23.81, 88.86 31.5 C91.26 39.19, 91.58 48.01, 89.6 55.8 C87.63 63.59, 83.01 72.69, 77 78.22 C70.99 83.76, 61.79 87.56, 53.56 89.02 C45.32 90.48, 35.32 90.1, 27.58 86.98 C19.85 83.85, 11.8 77.1, 7.15 70.27 C2.51 63.43, -0.15 53.98, -0.28 45.97 C-0.41 37.95, 2.11 28.94, 6.36 22.16 C10.61 15.38, 17.17 8.97, 25.2 5.29 C33.23 1.61, 48.73 0.45, 54.54 0.08 C60.36 -0.3, 60.22 2.24, 60.06 3.03 M39.53 -0.15 C47.38 -1.98, 58.98 0.01, 66.57 3.86 C74.16 7.71, 81.04 15.86, 85.08 22.98 C89.12 30.1, 91.09 38.6, 90.8 46.61 C90.5 54.62, 87.88 64.25, 83.32 71.04 C78.75 77.83, 70.99 84.16, 63.42 87.34 C55.85 90.53, 46.11 91.43, 37.9 90.14 C29.68 88.86, 20.43 85.28, 14.14 79.63 C7.86 73.98, 2.23 64.19, 0.21 56.23 C-1.8 48.28, -0.54 39.56, 2.07 31.89 C4.67 24.23, 9.6 15.65, 15.86 10.23 C22.12 4.81, 35.61 0.93, 39.62 -0.63 C43.63 -2.19, 39.87 -0.22, 39.91 0.88" stroke="#000000" stroke-width="1" fill="none"></path></g><g transform="translate(134.50003051757812 135.5188077896363) rotate(0 37.5 10)"><text x="37.5" y="14" font-family="Virgil, Segoe UI Emoji" font-size="16px" fill="#000000" text-anchor="middle" style="white-space: pre;" direction="ltr">Document</text></g><g stroke-linecap="round" transform="translate(61.20001220703125 220.51877727205817) rotate(0 44 43.19999694824219)"><path d="M5.74 20.89 C5.74 20.89, 5.74 20.89, 5.74 20.89 M5.74 20.89 C5.74 20.89, 5.74 20.89, 5.74 20.89 M2.82 30.72 C10.97 19.52, 20.12 11.68, 25.49 2.87 M3.17 29.42 C9.65 22.66, 14.89 16.11, 26.58 4.26 M1.33 38.52 C7.7 32.64, 14.03 22.74, 33.4 1.76 M1.99 38.69 C9.29 29.16, 15.77 20.46, 32.02 2.97 M0.25 44.44 C10.93 34.34, 21.8 19.95, 36.81 1.45 M0.64 45.38 C14.51 30.74, 25.85 15.5, 38.52 1.51 M1.41 47.77 C14.42 33.96, 27.92 22.41, 46.03 2.49 M3.04 48.75 C10.44 39.58, 19.43 28.57, 43.39 0.86 M3.75 54.43 C18.72 34.61, 36.08 16.75, 51.94 0.32 M3.18 54.07 C15.1 41.95, 24.41 30.1, 51.21 0.54 M4.18 60.26 C14.53 45.83, 26.55 35.74, 52.98 3.27 M5.71 58.2 C17.4 45.61, 28.48 30.52, 54.54 2.89 M6.32 61.7 C24.34 43.03, 39.47 21.19, 59.06 3.07 M6.46 62.51 C23.77 41.04, 42.65 21.07, 57.68 3.79 M8.79 68.35 C25.48 48.07, 41.02 28.34, 60.59 7.07 M8.49 67.73 C24.75 48.66, 40.67 29.5, 61.36 5.18 M9.25 69.94 C23.97 57.36, 36.89 40.86, 65.25 5.01 M9.83 71.07 C24.33 53.02, 39.33 36.77, 65.29 6.04 M14.03 71.84 C31.04 50.8, 47.43 30.45, 68.86 10.55 M14.93 72.11 C30.66 52.94, 47.31 32.7, 68.78 8.19 M15.58 73.09 C28.71 61.56, 40.01 47.37, 72.82 11.23 M17.78 74.97 C37.08 51.5, 56 29.42, 73.95 10.47 M19.91 78.59 C41.1 51.92, 62.81 29.26, 73.66 15.46 M21.17 76.81 C39.92 52.21, 62.59 30.19, 74.99 14.06 M22.16 79.88 C39.4 61.38, 51.99 46.48, 77.15 17.82 M23.96 78.85 C41.59 58.55, 58.65 38.15, 78.05 17.91 M26.1 79.92 C37.61 68.12, 49.41 57.6, 79.86 22 M26.37 81.37 C46.68 60.43, 64.4 38.52, 80.54 20.03 M29.58 83.02 C42.17 71.15, 52.74 57.78, 83.97 25.85 M29.14 83.95 C50.1 62.63, 69.5 40.75, 81.69 24.75 M33.36 86.16 C46.57 70.1, 60.82 57.12, 86.77 27.85 M34.16 84.96 C54.35 62.73, 74.1 40.79, 85.79 27.44 M40.74 84.2 C50.77 68.37, 64.75 54.83, 86.14 29.64 M39.8 85.11 C56.54 66.7, 73.1 47.74, 87.47 31.3 M43.55 86.65 C61.4 65.58, 77.16 47.75, 88.13 36.75 M44.66 86.38 C56.71 71.81, 68.82 58.74, 86.95 36.31 M49.1 87.64 C59.05 73.53, 71.88 59.07, 86.33 42.32 M48.31 88.34 C57.98 77.75, 66.47 67.27, 87.2 41.27 M54.95 86.47 C61.96 74.82, 75.52 64.83, 89.45 48.4 M53.77 86.83 C66.46 74.8, 76.42 61.17, 89.3 47.25 M61.73 82.77 C69.68 74.97, 77.19 64.5, 88.17 54.93 M62.07 83.48 C68.72 75.08, 76.8 67.26, 88.99 54.93" stroke="#12b886" stroke-width="0.5" fill="none"></path><path d="M25.38 3.67 C31.94 -0.17, 41.7 -1.28, 49.39 -0.31 C57.09 0.66, 65.48 4.54, 71.54 9.49 C77.6 14.45, 83.13 22.01, 85.75 29.41 C88.37 36.81, 89.18 46.24, 87.24 53.87 C85.3 61.51, 80.04 69.88, 74.12 75.21 C68.2 80.53, 59.48 84.68, 51.71 85.82 C43.94 86.96, 34.93 85.19, 27.49 82.06 C20.05 78.92, 11.66 73.36, 7.08 67.01 C2.5 60.66, 0.18 51.7, 0.01 43.95 C-0.17 36.2, 0.95 27.54, 6.05 20.53 C11.15 13.52, 25.31 5.22, 30.63 1.89 C35.95 -1.45, 37.82 -0.21, 37.97 0.53 M63.39 5.53 C70.06 8.37, 78.07 15.63, 82.09 22.34 C86.12 29.04, 88.02 38.09, 87.54 45.75 C87.06 53.41, 83.72 62.01, 79.24 68.28 C74.77 74.55, 68.04 80.57, 60.69 83.36 C53.33 86.15, 43.2 86.78, 35.11 85.01 C27.01 83.24, 17.65 78.23, 12.1 72.73 C6.55 67.24, 3.27 59.54, 1.79 52.04 C0.32 44.54, 0.57 35.05, 3.24 27.71 C5.91 20.37, 11.69 12.69, 17.83 8.01 C23.97 3.32, 32.26 -0.07, 40.09 -0.42 C47.91 -0.77, 60.66 5.09, 64.76 5.91 C68.86 6.72, 64.79 3.76, 64.69 4.46" stroke="#000000" stroke-width="1" fill="none"></path></g><g stroke-linecap="round" transform="translate(204.39999389648438 222.1187833755738) rotate(0 52.39999389648435 48.399993896484375)"><path d="M3.7 29.72 C3.7 29.72, 3.7 29.72, 3.7 29.72 M3.7 29.72 C3.7 29.72, 3.7 29.72, 3.7 29.72 M3.24 36.35 C7.86 27.73, 14.78 22.18, 23.79 13.14 M2.71 37.27 C9.29 28.96, 15.52 22.93, 25.15 12.49 M1.71 43.76 C8.06 34.47, 15.66 25.67, 32.75 6.61 M2.51 43.06 C12.56 31.05, 25.93 16.34, 32.13 8.74 M0.28 51.79 C14.28 39.36, 23.95 26.27, 40.28 4.81 M1.08 50.44 C16.45 33.25, 31.85 15.39, 40.88 6.52 M3.63 53.39 C12.79 43.08, 22.84 32.15, 48.21 1.46 M3.33 54.66 C19.65 36.33, 38.35 15.04, 49.39 3.3 M6.31 60.21 C20.31 41.67, 37.48 20.54, 53.77 3.48 M4 60.05 C15.22 47.72, 24.4 36.25, 52.73 2.42 M6.08 63.98 C19.92 46.39, 33.76 33.37, 58.83 3.86 M6.77 63.72 C19.54 47.58, 34.1 32.77, 58.08 4.23 M6.17 66.87 C17 53.81, 29.49 40.52, 63.56 5.24 M6.24 68.12 C28.67 44.44, 48.46 21.65, 62.13 3.88 M7.37 72.88 C23.8 54.8, 38.86 37.7, 66.63 3.95 M9.78 72.71 C23.46 56.88, 36.34 42.66, 67.03 5.6 M8.98 75.71 C25.18 61.52, 37.87 42.41, 72.59 5.66 M10.24 78.02 C27.34 58.74, 43.39 39.88, 73.52 4.66 M13.48 80.9 C32.4 59.04, 48.96 38.7, 76.86 5.71 M14.34 80.14 C36.92 53.87, 59.97 27, 75.67 5.91 M16.92 81.18 C41.01 55.39, 63.98 25.53, 81.04 8.33 M16.85 82.22 C36.14 60.58, 54.99 37.66, 79.95 9.23 M20.87 82.88 C37.39 60.55, 57.81 38.12, 81.87 10.36 M20.26 85.2 C35.43 65.14, 50.72 47.11, 83.91 11.55 M22.03 84.99 C35.76 71.35, 51.22 51.96, 86.04 14.82 M24.17 87.1 C36.25 70.58, 50.42 52.86, 86.79 14.61 M27.73 87.9 C48.91 62.46, 73.72 34.06, 88.35 16.09 M26.51 89.96 C49.48 61.21, 71.75 35.32, 89.38 16.48 M29.38 91.37 C53.53 65.28, 76.56 36.66, 91.2 16.7 M28.73 92.16 C43.46 75.32, 59.64 56.83, 93.29 18.49 M33.35 96.06 C53.49 70.73, 75.55 44.02, 96.11 20.09 M32.48 94.1 C48.32 74.87, 65.7 56.18, 96.2 20.31 M37.08 95 C59.36 73.02, 79.57 47.45, 95.9 26.08 M37.43 93.99 C50.78 78.14, 64.91 63.81, 97.81 25.67 M40.03 95.66 C56.28 76.78, 73.37 59.85, 97.44 27.86 M41.98 96.13 C62.31 70.23, 84.82 45.05, 100.33 29.56 M45.71 96.6 C59.41 79.5, 72.21 64.69, 99.9 34.28 M47.04 95.84 C58.23 82.91, 68.64 70.32, 100.5 32.83 M52.6 97.56 C70.6 73.43, 91.51 51.21, 101.59 38.82 M50.7 97.77 C63.79 84.35, 76.32 69.06, 102.11 37.33 M56.93 95.88 C67.37 84.48, 79.71 72.98, 105.38 42.12 M56.77 98.6 C67.21 85.11, 77.58 72.79, 105.28 42.76 M60.9 99.08 C77.86 80.43, 96.55 56.97, 104.95 45.69 M60.74 97.82 C73.65 85.6, 85.56 69.52, 106.35 44.59 M66.09 94.27 C82.55 80.37, 94.44 61.57, 104.97 52.45 M66.93 95.46 C78.73 84.55, 87.71 73.59, 105.89 52.91 M74.45 93.02 C87.3 82.96, 96.86 69.43, 105.79 60.46 M75.25 93.16 C85.82 80.79, 97.67 68.75, 105.12 60.27" stroke="#12b886" stroke-width="0.5" fill="none"></path><path d="M46.39 0.17 C54.48 -1.24, 64.98 1.41, 72.99 4.66 C80.99 7.92, 89.22 13.43, 94.42 19.69 C99.61 25.95, 103.28 34.16, 104.15 42.25 C105.01 50.33, 103.1 60.62, 99.59 68.2 C96.08 75.78, 90.03 82.95, 83.07 87.72 C76.11 92.49, 66.5 96.03, 57.81 96.83 C49.11 97.63, 38.9 95.79, 30.92 92.51 C22.93 89.24, 14.89 83.58, 9.89 77.17 C4.88 70.77, 1.94 61.94, 0.87 54.09 C-0.21 46.23, -0.11 37.49, 3.42 30.04 C6.95 22.6, 14.12 14.44, 22.05 9.41 C29.97 4.38, 45.64 1.25, 50.97 -0.15 C56.29 -1.55, 53.95 0.15, 54.01 1.04 M28.79 3.99 C35.67 -0.02, 46.84 -1.3, 55.91 -0.59 C64.97 0.11, 76.14 3.69, 83.2 8.22 C90.26 12.76, 94.76 19.2, 98.27 26.61 C101.78 34.02, 104.52 44.41, 104.27 52.66 C104.02 60.9, 101.53 69.46, 96.78 76.1 C92.04 82.73, 83.99 89.12, 75.82 92.46 C67.65 95.8, 56.48 96.89, 47.77 96.13 C39.07 95.38, 30.8 92.32, 23.58 87.92 C16.35 83.52, 8.26 76.99, 4.42 69.73 C0.57 62.46, -0.16 52.55, 0.51 44.34 C1.18 36.12, 3.79 26.96, 8.46 20.44 C13.14 13.91, 25.01 7.7, 28.56 5.19 C32.12 2.69, 29.21 4.75, 29.81 5.39" stroke="#000000" stroke-width="1" fill="none"></path></g><g transform="translate(224.79998779296875 250.51877727205817) rotate(0 32 20)"><text x="32" y="14" font-family="Virgil, Segoe UI Emoji" font-size="16px" fill="#000000" text-anchor="middle" style="white-space: pre;" direction="ltr">shadow </text><text x="32" y="34" font-family="Virgil, Segoe UI Emoji" font-size="16px" fill="#000000" text-anchor="middle" style="white-space: pre;" direction="ltr">host</text></g><g stroke-linecap="round" transform="translate(58.000030517578125 346.11884441073005) rotate(0 51.600006103515625 47.199981689453125)"><path d="M20.39 9.77 C20.39 9.77, 20.39 9.77, 20.39 9.77 M20.39 9.77 C20.39 9.77, 20.39 9.77, 20.39 9.77 M5.77 32.86 C13.67 22.39, 18.89 17.34, 26.81 7.99 M7.92 32.12 C14.83 21.84, 21.8 14.4, 27.68 7.99 M6.54 37.37 C16.13 27.09, 22.57 20.36, 38.03 3.06 M5.12 38.93 C18.29 25.46, 28.33 12.51, 36.16 3.23 M3.23 47.68 C15.87 33.88, 30.03 18.55, 43.74 0.77 M5.34 46.3 C13.23 36.89, 22.17 26.05, 44.48 1.45 M2.29 54.2 C19.63 37.16, 33.95 17.36, 50.02 2.53 M2.88 54.96 C16.27 37.78, 30.45 21.38, 47.54 2.04 M2.38 58.66 C18.39 39.19, 37.04 20.52, 51.66 4.33 M4.15 58.7 C14.56 46.75, 26.28 33.61, 53.08 2.42 M4.45 61.98 C22.56 47.16, 36.26 29.43, 58.84 3.79 M6 61.9 C20.21 45.38, 35.22 30, 56.67 2.85 M8.05 66.39 C24.2 49.95, 40.98 31.27, 63.48 4.62 M8.31 67.52 C28.21 44.54, 48.7 21.29, 62.32 4.64 M9.84 69 C30 50.97, 47.88 28.75, 69.21 3.41 M10.74 70.33 C22.93 55.63, 35.17 42.77, 66.59 4.72 M10.8 75.02 C34.89 49.53, 58.12 23.5, 72.43 4.11 M10.17 75.92 C32.61 50.67, 51.92 26.61, 72.04 3.78 M15.35 77.99 C29.87 63.31, 43.29 43.71, 74.23 6.52 M14.09 78.67 C35.82 51.87, 58.34 27.27, 75.28 6.65 M17.93 82.36 C36.46 61.83, 51.02 41.66, 77.41 8.3 M17.44 80.08 C39.27 54.29, 59.81 30.11, 78.36 9.91 M20.11 85.42 C36.39 66.58, 51.95 45.41, 80.5 12.23 M19.93 84.45 C39.49 60.6, 59.55 38.67, 82.9 10.99 M23.76 84.3 C36.19 71.55, 48.97 56.56, 86.12 12.92 M23.48 85.64 C44.73 62.23, 64.42 38.55, 84.83 14.66 M26.9 88.53 C46.24 65.93, 63.97 44.14, 88.89 17.38 M26.36 87.34 C47.04 64.89, 67.68 42.68, 88.46 17.23 M30.19 88.95 C42.74 74.45, 54.88 58.96, 91.21 20.93 M29.85 89.82 C48.11 68.23, 68.27 44.8, 92.56 18.33 M32.75 94.3 C46.51 78.87, 56.83 62.67, 95.17 19.81 M32.38 94.15 C56.74 65.43, 81.65 36.26, 94.51 21.19 M37.31 93.64 C52.41 77.13, 66.43 60.68, 95.64 25.58 M36.9 94.47 C53.21 76.89, 66.77 59.57, 97.62 24.84 M42.82 92.68 C55.09 79.9, 70.23 65.21, 100.11 29.17 M41.75 94 C56.26 78.63, 68.83 64.21, 99.24 29.89 M48.16 93.23 C67 76.06, 85.05 52.26, 100.54 33.35 M46.61 94.31 C67 71.38, 86.8 48.75, 100.86 32.74 M51.35 93.95 C63.03 81.82, 73.84 73.61, 102.6 35.77 M51.94 95.73 C63.94 79.7, 77.69 66.45, 101.56 36.4 M56.05 96.34 C66.66 81.24, 81.91 68.79, 103.36 42.71 M57.79 95.2 C69.83 79.51, 85.05 64.45, 104.05 41.93 M60.09 96.06 C76.01 78.39, 90.49 60.64, 103.25 49.52 M60.53 97.24 C77.35 78.6, 92.07 60.87, 102.76 48.73 M71.15 94.31 C81.6 79.33, 95.03 64.37, 101.12 56.92 M68.8 93.12 C79.38 83.35, 87.94 72.79, 101.22 56.49 M83.51 86.68 C87.28 81.13, 91.95 72.76, 98.84 63.25 M82.48 85.49 C85.7 81.03, 90.36 75.57, 100.89 65.23" stroke="#12b886" stroke-width="0.5" fill="none"></path><path d="M45.73 0.17 C53.74 -1.51, 63.7 0.28, 71.43 3.46 C79.15 6.65, 86.88 12.92, 92.06 19.26 C97.24 25.6, 101.34 33.74, 102.5 41.49 C103.67 49.25, 102.49 58.48, 99.05 65.77 C95.61 73.05, 88.63 80.42, 81.87 85.2 C75.1 89.98, 67.07 93.43, 58.47 94.44 C49.87 95.45, 38.25 94.42, 30.28 91.26 C22.3 88.1, 15.57 81.87, 10.61 75.49 C5.65 69.12, 1.45 60.78, 0.52 53.01 C-0.42 45.24, 1.74 36.05, 5.01 28.89 C8.29 21.73, 12.38 14.96, 20.15 10.05 C27.93 5.13, 45.13 0.75, 51.67 -0.59 C58.2 -1.93, 59.18 1.04, 59.37 2 M72.08 4.05 C79.98 6.46, 88.88 13.1, 93.86 19.28 C98.83 25.46, 101.22 33.24, 101.92 41.11 C102.62 48.98, 101.49 58.95, 98.04 66.51 C94.59 74.06, 88.11 81.99, 81.22 86.42 C74.33 90.86, 65.37 92.49, 56.69 93.11 C48.02 93.72, 36.89 93.21, 29.15 90.11 C21.42 87.01, 15.27 80.99, 10.29 74.52 C5.31 68.05, 0.05 58.92, -0.71 51.31 C-1.47 43.7, 1.91 36.09, 5.74 28.85 C9.57 21.61, 15.51 12.61, 22.28 7.87 C29.05 3.13, 37.94 1.04, 46.35 0.4 C54.76 -0.25, 68.51 3.37, 72.73 3.99 C76.94 4.61, 72.05 3.59, 71.64 4.13" stroke="#000000" stroke-width="1" fill="none"></path></g><g stroke-linecap="round"><g transform="translate(133.20001220703125 172.51877727205817) rotate(0 -7.280353552396406 24.718476004223334)"><path d="M0.21 0.58 C-2.23 8.66, -11.51 41.59, -14.02 49.6 M-1.13 -0.16 C-3.76 8.09, -12.32 39.56, -14.78 47.89" stroke="#000000" stroke-width="1" fill="none"></path></g></g><mask></mask><g stroke-linecap="round"><g transform="translate(212.0803566041543 171.60030431959268) rotate(0 21.07087914125063 24.944780802349555)"><path d="M0.1 1.11 C6.95 9.4, 34.11 41.41, 41.31 49.24 M-1.3 0.65 C5.89 8.62, 36.06 39.28, 43.44 47.34" stroke="#000000" stroke-width="1" fill="none"></path></g></g><mask></mask><g stroke-linecap="round"><g transform="translate(108.08032608657606 308.4002615949833) rotate(0 1.139027647785639 17.899986711144493)"><path d="M1.11 -1.09 C1.53 5.04, 2.07 30.7, 2.04 36.89 M0.24 0.95 C0.58 6.74, 0.79 29.16, 1.32 35.24" stroke="#000000" stroke-width="1" fill="none"></path></g></g><mask></mask><g stroke-linecap="round" transform="translate(463.4889814588759 169.7187360733277) rotate(0 161.59999084472656 222.40001678466797)"><path d="M32 0 M32 0 C100.2 1.22, 168.58 -1.23, 291.2 0 M32 0 C112.94 2.15, 192.85 1.2, 291.2 0 M291.2 0 C314.52 1.56, 321.42 11.8, 323.2 32 M291.2 0 C311.37 0.88, 324.94 12.39, 323.2 32 M323.2 32 C321.27 172.84, 320.86 312.12, 323.2 412.8 M323.2 32 C325.17 139.4, 325.88 246.93, 323.2 412.8 M323.2 412.8 C322.57 433.71, 313.93 445.35, 291.2 444.8 M323.2 412.8 C321.14 436.14, 314.64 444.96, 291.2 444.8 M291.2 444.8 C199.98 446.23, 107.34 447.18, 32 444.8 M291.2 444.8 C192.22 445.35, 92.96 445.24, 32 444.8 M32 444.8 C9.7 445.74, 1.99 436.11, 0 412.8 M32 444.8 C8.67 446.37, -2.11 434.77, 0 412.8 M0 412.8 C-1.57 309.51, -2.56 208.17, 0 32 M0 412.8 C-2.51 284.36, -2.66 156.46, 0 32 M0 32 C-0.31 9.18, 8.82 -0.41, 32 0 M0 32 C-0.88 11.41, 9.53 0.1, 32 0" stroke="#000000" stroke-width="1" fill="none"></path></g><g transform="translate(488.0889723036025 182.8187345474488) rotate(0 139 12.5)"><text x="0" y="18" font-family="Virgil, Segoe UI Emoji" font-size="20px" fill="#000000" text-anchor="start" style="white-space: pre;" direction="ltr">Shadow Tree (Shadow DOM)</text></g><g stroke-linecap="round" transform="translate(571.488996717665 229.31876506502692) rotate(0 46 45)"><path d="M12.93 13.89 C12.93 13.89, 12.93 13.89, 12.93 13.89 M12.93 13.89 C12.93 13.89, 12.93 13.89, 12.93 13.89 M4.47 27.31 C11.32 24.92, 14.79 19.2, 24.15 6.57 M5.71 27.34 C9.9 21.75, 14.77 16.06, 24.37 6.5 M0.91 39.65 C10.2 28.83, 17.21 21.03, 33.07 -0.85 M2.38 38.55 C14.74 22.77, 28.53 8.84, 35.51 2.02 M1.05 43.53 C9.46 36.36, 17.93 26.6, 39.54 0.25 M3.71 43.59 C12.98 30.87, 25.52 17.98, 40.31 1.08 M1.43 48.02 C11.91 35.97, 21.21 25.8, 45.79 1.64 M3.31 48.46 C17.86 33.51, 33 15.3, 44.98 0.84 M3.66 56.29 C14.35 40.32, 27.13 27.29, 51.4 2.25 M2.84 54.7 C12.93 43.4, 22.54 31.66, 49.78 1.34 M3.28 61.41 C14.3 48.46, 28.24 35, 56.06 0.67 M2.6 61.4 C16.73 48.2, 28.86 32.8, 55.57 2.15 M3.89 63.56 C17.55 51.25, 32.1 36.52, 61.73 0.85 M5.4 64.68 C19.47 49.46, 32.03 33.93, 59.65 2.41 M8.8 67.85 C29.13 43.45, 49.87 22.88, 62.2 3.19 M7.97 67.76 C22.2 52.71, 35.05 36.97, 63.16 4.08 M11.7 72.28 C23.15 57.37, 33.13 43.77, 67.8 6.67 M11.4 71.14 C27.34 51.51, 45.46 32.14, 67.45 6.39 M12.92 72.22 C32.25 54.22, 49.25 31.98, 70.98 7.93 M13.1 73.38 C27.2 59.84, 39.86 45.09, 71.46 9.14 M16.87 78.44 C26.61 62.6, 42.51 49.51, 73.16 10.77 M16.06 77.34 C27.72 63.27, 39.78 50.57, 74.33 10.43 M19.58 81.84 C36.65 61.54, 51.06 43.76, 74.84 15.34 M18.06 79.18 C37.42 59.12, 57.21 36.02, 77.22 14.17 M20.21 82.24 C34.59 69.14, 48.4 52.92, 79.15 14.96 M20.99 83.38 C36.49 65.32, 52.2 48.98, 80.64 15.07 M24.46 84.04 C45.53 62.08, 65.24 37.22, 83.33 16.86 M26 84.71 C37.98 69.36, 52.32 54.57, 83.68 17.65 M29.56 84.61 C45.6 65.24, 64.11 49.11, 86.91 21.61 M30.23 84.75 C42.51 71.81, 56.88 57.21, 85.91 22 M36.32 85.15 C50.89 67.32, 72.25 47.21, 86.49 28.22 M34.58 87.14 C45.09 73.8, 58.12 59.53, 85.93 26.99 M40.64 87.54 C58.99 66.42, 76.23 44.56, 89.96 32.29 M39.04 88.57 C49.31 76.25, 59.47 62.86, 89.38 30.78 M43.04 88.77 C60.25 66.12, 80.94 45.95, 91.33 35.1 M43.91 89.54 C58.71 70.37, 76.15 50.11, 89.43 34.13 M45.5 92.23 C64.19 69.36, 81.82 51.09, 92.21 38.07 M46.43 91.84 C62.96 72.3, 80.41 53.04, 92.1 39.08 M54.19 88.2 C68 72.99, 82.09 58.8, 95.33 41.23 M53.21 89.32 C66.37 74.36, 77.73 61.07, 93.46 43.71 M61.19 85.86 C71.8 77.5, 82.12 63.8, 90.74 49.55 M59.75 86.14 C71.67 74.27, 80.8 63.16, 91.64 50.71 M69.77 82.27 C74.97 73.37, 85.29 67.81, 91.17 60.09 M69.44 84.02 C74.29 76.04, 81.09 70.57, 89.89 58.76" stroke="#be4bdb" stroke-width="0.5" fill="none"></path><path d="M61.06 1.88 C68.69 3.75, 77.04 9.98, 82.13 16.46 C87.23 22.95, 90.89 32.57, 91.62 40.8 C92.35 49.04, 90.31 58.75, 86.51 65.89 C82.71 73.02, 75.67 79.75, 68.83 83.64 C61.98 87.52, 53.48 89.38, 45.42 89.19 C37.36 89.01, 27.51 86.92, 20.47 82.54 C13.43 78.15, 6.32 70.36, 3.16 62.87 C-0.01 55.38, -0.13 45.73, 1.47 37.59 C3.08 29.45, 7.41 20.18, 12.81 14.03 C18.22 7.87, 24.69 2, 33.93 0.66 C43.17 -0.69, 61.57 4.33, 68.25 5.96 C74.92 7.58, 74.21 9.81, 73.97 10.38 M31.69 2.77 C39.12 -0.25, 50.66 0.93, 58.82 2.67 C66.99 4.41, 75.49 7.34, 80.67 13.2 C85.85 19.05, 88.65 29.58, 89.9 37.78 C91.15 45.99, 91.17 55, 88.15 62.43 C85.13 69.85, 78.76 77.76, 71.77 82.34 C64.78 86.91, 54.17 89.77, 46.19 89.86 C38.21 89.94, 30.99 86.84, 23.89 82.83 C16.79 78.81, 7.52 72.81, 3.58 65.77 C-0.37 58.74, -0.84 48.72, 0.23 40.63 C1.31 32.55, 4.99 23.65, 10 17.26 C15.01 10.87, 26.66 4.86, 30.32 2.31 C33.98 -0.25, 31.49 1.11, 31.96 1.94" stroke="#000000" stroke-width="1" fill="none"></path></g><g transform="translate(584.988996717665 254.31876506502692) rotate(0 32.5 20)"><text x="32.5" y="14" font-family="Virgil, Segoe UI Emoji" font-size="16px" fill="#000000" text-anchor="middle" style="white-space: pre;" direction="ltr">Shadow </text><text x="32.5" y="34" font-family="Virgil, Segoe UI Emoji" font-size="16px" fill="#000000" text-anchor="middle" style="white-space: pre;" direction="ltr">root</text></g><g stroke-linecap="round" transform="translate(506.6889784071181 349.3187345474488) rotate(0 44 43.19999694824219)"><path d="M11.7 14.14 C11.7 14.14, 11.7 14.14, 11.7 14.14 M11.7 14.14 C11.7 14.14, 11.7 14.14, 11.7 14.14 M3.33 32.85 C9.59 24.2, 15.33 15.83, 21.82 8.76 M1.35 30.4 C5.94 25.25, 11.09 20.83, 21.65 8.23 M3.84 35.16 C13.44 24.46, 19.15 14.08, 35.23 0.77 M2.27 36.14 C15.77 22.45, 27.72 9.74, 32.57 0.74 M1.64 44.09 C15.04 29.14, 27.66 13.22, 38.53 2.39 M2.08 42.71 C16.67 27.15, 30.3 11.1, 37.82 2.23 M3.2 45.32 C16.78 30.99, 32.75 16.22, 44.41 2.04 M4.23 47.99 C16.34 33.61, 27.05 20.65, 43.23 2.54 M3.29 52.22 C16.47 38.47, 33.13 21.84, 46.8 3.61 M4.65 51.69 C13.43 41.53, 23.12 31.46, 47.78 1.36 M3.79 58.77 C20.88 41.75, 37.09 21.37, 52.21 2.07 M6.37 58.55 C19.39 42.66, 32.17 28.43, 52.78 2.19 M5.82 63.09 C22.48 46.88, 37.9 28.06, 57.27 2.09 M7.35 62.14 C24.76 41.36, 42.43 21.39, 59.1 3.07 M9.97 63.95 C22.11 53.13, 31.91 36.74, 60.25 6.7 M10.49 65.55 C27.26 45.65, 43.31 26.09, 60.48 5.62 M12.46 68.27 C24.93 51.22, 40.66 36.17, 64.47 9.07 M11.53 69.23 C32.44 46.31, 51.66 23.06, 64.64 8.99 M15.91 72.08 C28.32 55.85, 42.25 40.56, 66.55 9.01 M15.57 72.12 C36.7 48.37, 57.65 24.59, 67.33 10.64 M15.59 74.83 C38.31 53.32, 56.12 28.62, 69.25 12.22 M17.08 74.27 C34.77 55.09, 52.96 33.85, 70.9 11.84 M20.86 77.36 C31.75 62.93, 42.73 50.41, 75.54 15.56 M19.05 79 C32.63 64.23, 45.99 50.12, 74.13 15.15 M22.01 83.39 C44.84 57.57, 65.75 29.97, 76.91 15.51 M21.66 80.69 C41.06 60.42, 59.4 38.65, 78.27 17.22 M26.44 83.01 C44.53 60.58, 62.26 40.5, 78.09 22.96 M26.1 82.54 C44 63.36, 60.23 43.17, 79.52 21.74 M29.52 82.74 C46.69 68.58, 61.77 49.8, 79.91 24.16 M29.32 84.79 C41.32 73.26, 51.91 60.29, 81.63 24.67 M32.71 86.22 C48.5 72.28, 58.92 58.53, 82.13 30.27 M33.73 85.74 C45.61 72.47, 55.05 61.03, 84.52 28.06 M39.08 87.48 C49.53 72.93, 66.05 58.11, 83.66 33.36 M38.65 87.24 C49.91 72.06, 63.64 58.71, 86.22 32.26 M41.5 86.45 C61.2 67.47, 78.96 48.22, 88.01 36.34 M42.08 88.46 C59.51 67.46, 75.66 48.06, 88.01 38.17 M50.04 85.18 C62.98 72.36, 76.66 54.84, 90.75 41.81 M49.98 86.34 C62.04 73.05, 72.6 60.11, 89.78 40.25 M57.64 83.39 C66.2 75.56, 74.84 63.65, 88.52 47.75 M57.64 83.42 C68.06 71.3, 78.93 59.35, 88.64 48.51 M64.82 84.68 C72.61 73.94, 76.9 64.36, 88.9 55.75 M64.14 82.28 C71.88 73.3, 80.86 62.47, 88.62 55.02" stroke="#fd7e14" stroke-width="0.5" fill="none"></path><path d="M33.27 1.21 C40.27 -1.06, 50.19 0.29, 57.54 2.88 C64.9 5.47, 72.51 10.85, 77.41 16.76 C82.31 22.67, 85.79 30.87, 86.95 38.33 C88.11 45.79, 87.67 54.46, 84.39 61.52 C81.11 68.59, 74.28 76.48, 67.27 80.71 C60.25 84.94, 50.19 87.15, 42.29 86.91 C34.4 86.67, 26.27 83.84, 19.89 79.28 C13.51 74.72, 7.33 66.94, 4.03 59.56 C0.73 52.18, -1.16 42.56, 0.1 35.01 C1.36 27.46, 4.66 20.22, 11.58 14.28 C18.51 8.33, 34.8 1.48, 41.67 -0.67 C48.54 -2.82, 52.74 0.5, 52.8 1.39 M62.54 4.67 C69.85 6.71, 77.28 11.31, 81.29 17.64 C85.3 23.98, 86.6 34.69, 86.61 42.7 C86.62 50.7, 85.29 59.07, 81.35 65.68 C77.41 72.28, 70.28 78.93, 62.98 82.32 C55.69 85.7, 45.15 87.09, 37.57 86 C30 84.91, 23.66 80.59, 17.55 75.79 C11.43 70.99, 3.57 64.4, 0.88 57.22 C-1.81 50.04, -0.78 40.25, 1.41 32.7 C3.6 25.15, 8.39 17.24, 14.04 11.9 C19.69 6.56, 27.43 2.27, 35.3 0.65 C43.18 -0.97, 57.01 1.49, 61.28 2.2 C65.55 2.92, 61.26 4.22, 60.93 4.94" stroke="#000000" stroke-width="1" fill="none"></path></g><g stroke-linecap="round" transform="translate(647.6031934950088 350.9187406509644) rotate(0 52.399993896484375 48.399993896484375)"><path d="M18.55 10.83 C18.55 10.83, 18.55 10.83, 18.55 10.83 M18.55 10.83 C18.55 10.83, 18.55 10.83, 18.55 10.83 M3.72 33.06 C12.34 23.57, 18 15.6, 25.02 5.99 M3.65 32.89 C9.58 28.02, 13.23 23.21, 27.42 6.62 M1.72 41.98 C15.08 28.89, 26.9 14.7, 33.68 3.54 M4.59 39.31 C15.33 26.39, 27.11 11.86, 33.73 5.6 M1.54 47.44 C13.91 36.77, 25.3 22.79, 40.13 2.73 M2.37 46.73 C16.76 31.95, 28.79 15.23, 41.6 1.12 M2.31 54.73 C13.17 41.24, 23.51 27.78, 47.3 3.87 M1.51 53.55 C20.87 33.65, 37.69 14.26, 46.1 2.48 M2.96 57.78 C14 45.03, 21.35 34.54, 51.69 1.09 M2.04 58.76 C12.81 47.35, 24.27 35.08, 51.8 2.54 M3.37 61.58 C20.5 42.88, 35.73 24.93, 59.33 3.9 M4.86 62.15 C24.64 39.55, 43.81 16.6, 56.95 3 M5.66 65.78 C23.18 47.18, 40.91 25.87, 62.86 3.16 M7.22 67.62 C20.7 50.83, 34.74 35.57, 62.83 2.1 M8.49 69.13 C28.8 49.46, 46.44 26.17, 69.41 3.6 M9.39 69.35 C28.58 48.18, 48.27 27, 67.88 2.92 M11.06 74.47 C27.56 57.83, 42.67 39.31, 71.09 5.3 M10.78 74.63 C35.07 46.33, 57.85 18.52, 72.42 4.63 M12.81 76.25 C30.07 59.15, 48 35.5, 76.15 8.46 M14.02 77.02 C35.66 52.35, 57.99 26.49, 74.1 6.94 M14.73 80.06 C37.5 55.4, 61.98 27.36, 78.11 7.86 M14.39 81.71 C32.56 59.13, 52.71 39.03, 79.23 8.39 M19.7 85.3 C37.29 62.71, 52.86 41.26, 81.01 12.44 M18.52 83.89 C36.05 64.97, 52.65 43.07, 82.3 11.58 M21.13 85.52 C39.07 64.83, 59.84 41.41, 85.17 10.95 M21.23 86.88 C42.96 62.01, 63.85 36.77, 86.02 12.7 M24.07 86.87 C46.52 66.84, 64.67 44.86, 88.42 15.03 M24.86 88.29 C50.45 59.35, 74.89 30.2, 88.75 14.26 M27.71 89.6 C51.3 60.12, 77.83 31.69, 91.82 16.9 M28.1 91.32 C51.71 61.74, 78.19 33.06, 92.51 16.56 M33.85 91.33 C58.11 62.51, 82.32 35.94, 93.7 20.7 M32.62 93.72 C53.61 67.81, 77.57 42.38, 95.24 20.76 M36.81 93.78 C47.68 79.47, 60.96 66.81, 97.24 24.86 M35.31 96.33 C48.53 79.78, 63.36 62.6, 96.64 23.07 M39.17 98.28 C58.35 75.29, 81.41 51.17, 97.14 29.21 M38.2 98.29 C58.13 77.45, 74.56 57.13, 99.14 27.52 M42.99 99.03 C60.64 78.56, 75.21 62.04, 101.4 32.16 M44 98.06 C64.81 72.26, 87.11 47.36, 101.82 30.96 M47 98.07 C68.04 76.05, 86.78 53.18, 104.52 34.26 M49.49 98.19 C65.45 79.76, 80.98 60.74, 103.97 36.31 M53.06 98.32 C76.32 75.85, 93.27 49.53, 107.27 37.65 M54.22 98.04 C67.63 83.01, 79.86 68.08, 105.04 37.82 M60.68 97.56 C76.26 78, 96.04 57.37, 103.31 44.61 M59.35 97.56 C73.37 82.8, 86.9 66.31, 105.55 45.32 M66.15 96.65 C73.74 87.01, 83.37 80.16, 102.15 52.73 M64.94 97.22 C79.17 82.14, 93.48 66.08, 104.26 53.17 M75.04 95.33 C79.88 84.4, 88.07 76.11, 101.84 59.73 M72.78 93.59 C80.88 85.54, 88.46 77.41, 103.16 58.83" stroke="#fd7e14" stroke-width="0.5" fill="none"></path><path d="M69.36 2.57 C77.64 4.23, 86.87 10.04, 92.76 16.03 C98.66 22.02, 103.2 30.3, 104.72 38.49 C106.25 46.68, 105.05 57.32, 101.92 65.17 C98.78 73.02, 92.44 80.52, 85.92 85.58 C79.4 90.64, 71.15 93.98, 62.79 95.53 C54.44 97.08, 44.03 97.38, 35.77 94.9 C27.51 92.42, 19.11 86.98, 13.23 80.66 C7.36 74.34, 2.39 65.01, 0.53 56.99 C-1.32 48.97, -0.87 40.19, 2.11 32.52 C5.09 24.85, 11.81 16.13, 18.42 10.98 C25.04 5.83, 32.69 2.89, 41.81 1.62 C50.93 0.36, 67.3 2.45, 73.15 3.4 C78.99 4.36, 77.15 6.45, 76.86 7.35 M74.98 3.88 C82.63 6.52, 92.07 14.76, 97.06 21.68 C102.05 28.59, 104.5 37.52, 104.9 45.4 C105.3 53.27, 103.46 61.43, 99.46 68.92 C95.45 76.42, 88.38 85.95, 80.86 90.37 C73.33 94.79, 62.92 95.27, 54.33 95.46 C45.74 95.65, 36.87 94.99, 29.31 91.51 C21.75 88.03, 13.74 81.54, 8.96 74.59 C4.17 67.63, 1.14 57.77, 0.6 49.78 C0.06 41.79, 2.04 33.58, 5.71 26.62 C9.38 19.65, 15.18 12.42, 22.62 7.98 C30.06 3.53, 41.58 0.59, 50.35 -0.04 C59.12 -0.68, 70.88 3, 75.26 4.15 C79.63 5.3, 76.79 5.85, 76.61 6.86" stroke="#000000" stroke-width="1" fill="none"></path></g><g stroke-linecap="round" transform="translate(654.3461046975756 485.20453341045095) rotate(0 51.600006103515625 47.199981689453125)"><path d="M12.62 16.27 C12.62 16.27, 12.62 16.27, 12.62 16.27 M12.62 16.27 C12.62 16.27, 12.62 16.27, 12.62 16.27 M4.88 30.83 C9 24.73, 13.95 17.44, 23.16 6.58 M4.34 32.37 C9.13 26.5, 16.63 17.89, 25.61 7.44 M3.06 40.73 C10.55 31.64, 17.16 21.28, 37.63 1.47 M3.03 39.32 C14.46 25.06, 26.93 11.91, 35.42 2.27 M4.71 46.13 C16.61 31.83, 24.12 20.02, 42.26 1.97 M4.55 44.96 C16.64 28.58, 30.67 12.7, 40.7 1.03 M3.74 50.67 C18.77 31.63, 34.27 17.3, 48.15 -0.09 M4.24 50.95 C18.13 35.55, 31.28 18.76, 45.43 2.7 M5.34 54.58 C20.72 35.21, 40.05 13.44, 50.23 0.01 M3.1 56.7 C19.28 39.81, 33.38 23.15, 52.1 2.1 M2.53 62.98 C22.09 41.02, 45.68 19.2, 59.11 -0.15 M2.64 63.51 C23.64 39.04, 45.16 15.75, 57.79 1.63 M5.2 67.29 C26.88 42.23, 49.18 18.3, 62.2 0.37 M6.18 65.68 C19.67 50.41, 32.96 34.42, 63.55 1.52 M9.56 70.35 C20.64 55.23, 35.22 42.17, 67.58 2.4 M8.47 69.39 C21.41 56.42, 34.15 40.79, 66.49 2.07 M11.66 74.59 C31.51 50.57, 50.62 27.41, 72.42 5.33 M11.58 72.61 C31.29 48.37, 52.67 26, 70.5 4.12 M12.09 78.3 C31.91 53.16, 53.5 33.81, 76.19 6.67 M13.72 77.15 C36.58 50.6, 58.58 23.34, 75.68 6.35 M15.05 80.36 C33.15 60.39, 49.61 39.99, 78.56 8.32 M14.66 79.13 C39.29 54.56, 62.43 27.01, 78.47 7.28 M18.88 81.8 C28.82 65.89, 42.61 54.29, 81.79 9.5 M18.47 84.23 C39.66 57.09, 62.76 32.71, 82.36 9.96 M19.88 85.71 C36.49 67.61, 51.66 48.66, 86.64 11.33 M21.59 85.45 C42.37 60.48, 63.91 36.89, 85.96 10.29 M26.87 87.32 C45.35 65.98, 62.93 43.98, 90.84 14.26 M25.65 86.88 C46.36 62.48, 67.12 38.21, 89.8 14.24 M27.61 86.98 C54.03 59.39, 76.35 34.03, 92.93 18.11 M28.12 88.42 C53.89 60.57, 75.69 34.53, 92.34 17.6 M34.68 88.36 C50.34 71.35, 65.61 51.38, 94.73 19.56 M32.46 89.79 C46.74 74.53, 58.68 60.45, 92.78 21.19 M37.3 91.03 C59.15 68.33, 80.16 42.94, 94.57 23.13 M36.21 92.78 C59.67 64.99, 81.61 38.29, 96.45 23.71 M39.83 95.39 C62.91 70.82, 79.56 47.61, 98.4 25.98 M41.66 94.01 C53.2 79.19, 66.49 63.57, 98.26 28.15 M44.93 95.98 C61.19 77.43, 79.28 56.13, 101.65 32.12 M43.37 95.9 C61.7 75.18, 79.57 54.78, 100.75 31.82 M49.36 96.9 C69.5 73.02, 92.08 47.8, 102.39 34.89 M50.13 95.94 C64.21 77.99, 79.64 62.31, 103.47 34.59 M56.62 96.66 C64.9 80.56, 79.46 68.51, 101.85 41.3 M55.88 95.21 C67.88 80.46, 79.21 66.07, 103.86 40.95 M59.94 95.85 C75.53 79.76, 87.01 61.7, 102.87 48.42 M60.99 95.86 C70.48 84.21, 81.62 71.65, 101.85 46.15 M66.22 93.68 C75.8 86.79, 81.88 74.57, 104.43 53.44 M66.38 95.35 C74.01 87.15, 82.01 77.56, 102.66 52.03 M69.84 94.24 C77.74 85.74, 85.16 76.98, 101.5 58.15 M71.64 94.47 C80.01 85.84, 86.59 76.9, 102.95 59.27" stroke="#fd7e14" stroke-width="0.5" fill="none"></path><path d="M62.69 0.27 C71.02 0.99, 80.39 5.63, 86.7 11.12 C93.01 16.6, 98.11 25.51, 100.56 33.2 C103 40.89, 103.01 49.76, 101.37 57.25 C99.73 64.74, 96.19 72.2, 90.7 78.12 C85.21 84.03, 76.61 90.1, 68.44 92.75 C60.28 95.4, 50.29 95.82, 41.7 94.02 C33.12 92.22, 23.59 87.28, 16.95 81.96 C10.32 76.64, 4.47 69.6, 1.87 62.09 C-0.72 54.58, -0.37 44.48, 1.37 36.91 C3.11 29.33, 6.68 22.49, 12.3 16.64 C17.91 10.78, 25.97 4.09, 35.06 1.78 C44.15 -0.52, 60.87 2.34, 66.81 2.81 C72.75 3.29, 70.83 3.88, 70.69 4.64 M68.78 2.13 C76.99 4.02, 84.85 9.83, 90.47 15.55 C96.09 21.27, 100.88 28.43, 102.53 36.45 C104.18 44.46, 103.33 56.16, 100.39 63.64 C97.45 71.12, 91.2 76.36, 84.88 81.33 C78.56 86.29, 70.68 91.7, 62.47 93.43 C54.27 95.17, 43.81 94.43, 35.63 91.73 C27.46 89.03, 19.19 83.07, 13.43 77.23 C7.66 71.39, 3.03 64.18, 1.04 56.7 C-0.95 49.21, -1.37 39.8, 1.49 32.3 C4.35 24.8, 11.7 17.1, 18.2 11.69 C24.71 6.28, 32.03 1.24, 40.49 -0.17 C48.96 -1.59, 64.38 2.51, 68.98 3.2 C73.58 3.9, 68.51 3.36, 68.12 4.01" stroke="#000000" stroke-width="1" fill="none"></path></g><g stroke-linecap="round"><g transform="translate(578.6889784071182 301.3187345474488) rotate(0 -7.0973232269194 24.923195868870266)"><path d="M-0.45 0.48 C-2.79 8.46, -12.46 40.76, -14.63 48.68 M1.51 -0.31 C-0.95 7.8, -13.15 41.96, -15.7 50.15" stroke="#000000" stroke-width="1" fill="none"></path></g></g><mask></mask><g stroke-linecap="round"><g transform="translate(657.5693228042412 300.40026159498336) rotate(0 20.77941785201898 24.149883098225104)"><path d="M0.48 -0.23 C7.4 8.13, 35.43 41.36, 42.28 49.7 M-0.72 -1.4 C5.95 6.67, 33.81 39.81, 41.27 48.05" stroke="#000000" stroke-width="1" fill="none"></path></g></g><mask></mask><g stroke-linecap="round"><g transform="translate(704.4264002665734 447.48595059470426) rotate(0 0.34314012028738716 17.525140217682406)"><path d="M-0.23 -0.12 C0.26 5.66, 2.02 29.31, 2.5 35.18 M-1.82 -1.23 C-1.36 4.64, 1.32 30.09, 2.03 36.28" stroke="#000000" stroke-width="1" fill="none"></path></g></g><mask></mask><g stroke-linecap="round"><g transform="translate(310.7971206922286 267.6715226826042) rotate(0 128.76282924269293 1.142598450215587)"><path d="M-0.56 0.8 C42.47 1.21, 215.11 1.38, 258.09 1.49" stroke="#000000" stroke-width="1.5" fill="none" stroke-dasharray="8 9"></path></g><g transform="translate(310.7971206922286 267.6715226826042) rotate(0 128.76282924269293 1.142598450215587)"><path d="M231.21 12.37 C239.14 8.26, 247.26 6.27, 256.21 1.06" stroke="#000000" stroke-width="1.5" fill="none"></path></g><g transform="translate(310.7971206922286 267.6715226826042) rotate(0 128.76282924269293 1.142598450215587)"><path d="M231.25 -8.16 C239 -6.31, 247.1 -2.34, 256.21 1.06" stroke="#000000" stroke-width="1.5" fill="none"></path></g></g><mask></mask><g stroke-linecap="round" transform="translate(354.8889736599394 27.652152651832466) rotate(0 42 290.5)"><path d="M4.93 5.61 C4.93 5.61, 4.93 5.61, 4.93 5.61 M4.93 5.61 C4.93 5.61, 4.93 5.61, 4.93 5.61 M3.36 13.52 C5.5 11.19, 10.21 8.03, 13.2 2.2 M3.36 13.52 C5.89 10.54, 7.73 8.69, 13.2 2.2 M1.13 22.18 C4.85 19.73, 9.49 15.41, 18.84 1.81 M1.13 22.18 C6.57 15.66, 13.25 7, 18.84 1.81 M1.53 27.83 C11.49 20.6, 17.62 10.09, 23.83 2.17 M1.53 27.83 C8.61 18.17, 17.53 10.83, 23.83 2.17 M1.26 34.22 C12.52 23.28, 23.14 11.15, 28.82 2.53 M1.26 34.22 C8.66 24.21, 18.5 14.02, 28.82 2.53 M1 40.62 C12.01 29.78, 20.77 15.94, 34.46 2.13 M1 40.62 C13.36 27.17, 26.01 13.35, 34.46 2.13 M1.4 46.26 C17.13 27.67, 29.15 13.18, 39.45 2.49 M1.4 46.26 C10.52 35.55, 19.71 23.88, 39.45 2.49 M1.14 52.66 C14.56 34.82, 28.76 22.19, 45.09 2.1 M1.14 52.66 C10.83 42.37, 21.3 29.44, 45.09 2.1 M1.53 58.31 C11.06 47.74, 24.04 35.12, 50.08 2.46 M1.53 58.31 C12.28 47.14, 22.61 35.23, 50.08 2.46 M1.27 64.7 C23.86 38.72, 43.99 15.64, 55.72 2.06 M1.27 64.7 C16.52 47.57, 29.65 31.2, 55.72 2.06 M1.01 71.1 C20.4 46.8, 43.17 21.46, 60.71 2.42 M1.01 71.1 C23.8 45, 45.99 20.51, 60.71 2.42 M1.4 76.74 C21.71 56.19, 38.96 32.56, 65.7 2.78 M1.4 76.74 C20.81 55.64, 39.14 33.8, 65.7 2.78 M1.14 83.14 C28.35 51.39, 51.59 21.91, 71.99 1.63 M1.14 83.14 C29.64 50.71, 57.95 19.23, 71.99 1.63 M1.53 88.79 C17.45 72.28, 31.72 53.65, 75.67 3.5 M1.53 88.79 C20.71 67.13, 37.92 44.38, 75.67 3.5 M1.27 95.18 C27.12 66.1, 55.33 37.23, 79.34 5.37 M1.27 95.18 C22.38 70.18, 44.94 43.39, 79.34 5.37 M1.01 101.58 C22.41 75.23, 44.2 53.26, 81.05 9.51 M1.01 101.58 C32.23 65.44, 63.15 31.61, 81.05 9.51 M1.41 107.22 C32.51 70.75, 67.51 34.22, 82.76 13.64 M1.41 107.22 C28.91 75.32, 56.92 45.37, 82.76 13.64 M1.15 113.62 C24.24 90.19, 43.24 65.55, 85.12 17.02 M1.15 113.62 C23.05 89.91, 42.45 65.02, 85.12 17.02 M1.54 119.26 C33.67 83.75, 67.29 45.06, 84.86 23.42 M1.54 119.26 C32.76 82.49, 62.57 47.31, 84.86 23.42 M1.28 125.66 C21.63 100.55, 43.12 79.45, 85.25 29.06 M1.28 125.66 C28.06 94.88, 56.36 62.66, 85.25 29.06 M1.02 132.06 C21.61 111.18, 40.87 87.64, 84.99 35.46 M1.02 132.06 C26.79 101.91, 54.55 69.57, 84.99 35.46 M1.41 137.7 C21.75 114.43, 39.15 93.22, 84.73 41.86 M1.41 137.7 C34.48 100.44, 67.35 62.9, 84.73 41.86 M1.15 144.1 C31.93 111.7, 60.62 76.62, 85.13 47.5 M1.15 144.1 C18.07 123.15, 35.58 104.54, 85.13 47.5 M1.54 149.74 C19.63 128.63, 41.24 106.01, 84.86 53.9 M1.54 149.74 C28.41 117.18, 57.45 84.6, 84.86 53.9 M1.28 156.14 C24.84 133.15, 42.87 107.98, 85.26 59.54 M1.28 156.14 C17.11 136.87, 35.33 116.72, 85.26 59.54 M1.02 162.54 C19.02 142.53, 38.28 122.78, 85 65.94 M1.02 162.54 C32.55 124.48, 64.95 87.94, 85 65.94 M1.42 168.18 C28.46 138.39, 53.93 111.53, 84.74 72.33 M1.42 168.18 C31.26 132.19, 62.51 96.11, 84.74 72.33 M1.15 174.58 C21.83 153.21, 36.37 134.08, 85.13 77.98 M1.15 174.58 C22.58 150.81, 43.84 125.64, 85.13 77.98 M1.55 180.22 C33.44 141.86, 68.16 105.52, 84.87 84.38 M1.55 180.22 C25.66 151.63, 49.47 124.25, 84.87 84.38 M1.29 186.62 C28.98 153.03, 60.39 120.77, 85.26 90.02 M1.29 186.62 C32.73 150.14, 63.11 114.39, 85.26 90.02 M1.03 193.02 C21.28 167.5, 45.15 140.81, 85 96.42 M1.03 193.02 C20.05 170.94, 40.26 147.96, 85 96.42 M1.42 198.66 C32.4 160.66, 67.62 120.68, 84.74 102.81 M1.42 198.66 C24.79 171.13, 50.4 141.76, 84.74 102.81 M1.16 205.06 C35.58 168.79, 67.58 132.19, 85.14 108.46 M1.16 205.06 C21.72 182.43, 40.18 160.49, 85.14 108.46 M1.55 210.7 C25.4 183.62, 48.89 155.06, 84.87 114.85 M1.55 210.7 C22.97 185.12, 46.17 158.48, 84.87 114.85 M1.29 217.1 C27.32 189.34, 49.7 159.79, 85.27 120.5 M1.29 217.1 C32.05 181.41, 64.58 142.72, 85.27 120.5 M1.03 223.5 C31.85 185.44, 65.72 151.01, 85.01 126.9 M1.03 223.5 C24.3 196.64, 49.12 168.78, 85.01 126.9 M1.43 229.14 C18.64 209.76, 34.26 186.79, 84.75 133.29 M1.43 229.14 C29.55 199.49, 54.63 169.32, 84.75 133.29 M1.16 235.54 C30.97 200.29, 59.08 167.17, 85.14 138.94 M1.16 235.54 C20.09 214.64, 38.61 194.08, 85.14 138.94 M1.56 241.18 C21.55 219.74, 40.84 195.88, 84.88 145.33 M1.56 241.18 C33.49 204.31, 64.66 167.53, 84.88 145.33 M1.3 247.58 C32.27 213.33, 61.64 177.55, 85.27 150.98 M1.3 247.58 C22.59 221.7, 45.66 196.67, 85.27 150.98 M1.69 253.22 C33.6 216.39, 68.65 176.52, 85.01 157.38 M1.69 253.22 C20.55 230.24, 38.27 210.16, 85.01 157.38 M1.43 259.62 C22.69 238.23, 40.92 215.24, 84.75 163.77 M1.43 259.62 C27.96 227.45, 56.67 196.08, 84.75 163.77 M1.17 266.02 C28.98 230.71, 59.93 197.55, 85.14 169.42 M1.17 266.02 C18.91 245.51, 38.32 225.16, 85.14 169.42 M1.56 271.66 C29.62 238.77, 58.25 207.85, 84.88 175.81 M1.56 271.66 C23.76 247.62, 42.85 225.61, 84.88 175.81 M1.3 278.06 C26.83 248.94, 49.76 221.16, 85.28 181.46 M1.3 278.06 C21.52 257.49, 39.4 234.8, 85.28 181.46 M1.7 283.7 C23.31 261.19, 41.73 238.61, 85.02 187.85 M1.7 283.7 C29.95 251.32, 57.9 219.46, 85.02 187.85 M1.44 290.1 C24.89 264.96, 47.07 239.24, 84.75 194.25 M1.44 290.1 C21.03 265.22, 43.46 242, 84.75 194.25 M1.17 296.5 C26.5 266.8, 49.67 239.37, 85.15 199.9 M1.17 296.5 C22.51 270.12, 44.63 245.74, 85.15 199.9 M1.57 302.14 C23.35 278.82, 42.08 256.37, 84.89 206.29 M1.57 302.14 C36.24 263.09, 68.27 225.78, 84.89 206.29 M1.31 308.54 C23.47 284.12, 46.62 255.04, 85.28 211.94 M1.31 308.54 C32.52 272.73, 63.88 235.95, 85.28 211.94 M1.7 314.18 C22.33 289.44, 43.7 264.27, 85.02 218.33 M1.7 314.18 C25.26 287.18, 47.83 260.2, 85.02 218.33 M1.44 320.58 C24.11 295.22, 43.15 271.99, 84.76 224.73 M1.44 320.58 C29.96 288.77, 58.13 254.34, 84.76 224.73 M1.18 326.98 C19.49 306.29, 37.35 283.55, 85.15 230.38 M1.18 326.98 C18.96 305.27, 36.57 284.33, 85.15 230.38 M1.57 332.62 C19.13 310.58, 37.57 291.43, 84.89 236.77 M1.57 332.62 C30.74 298.99, 61.32 264.26, 84.89 236.77 M1.31 339.02 C33 305.75, 60.57 270.61, 85.29 242.42 M1.31 339.02 C23.72 313.39, 46.1 289.5, 85.29 242.42 M1.71 344.66 C33.67 304.36, 66.03 267.33, 85.03 248.81 M1.71 344.66 C28.16 316.13, 53.97 287.52, 85.03 248.81 M1.45 351.06 C29.87 318.74, 57.18 285.29, 85.42 254.46 M1.45 351.06 C33.33 315.6, 62.52 281.04, 85.42 254.46 M1.18 357.46 C30.4 324.33, 63.3 287.07, 85.16 260.85 M1.18 357.46 C18.53 337.3, 37.4 317.11, 85.16 260.85 M1.58 363.1 C35.13 325.84, 65.57 286.52, 84.9 267.25 M1.58 363.1 C34.34 325.72, 64.92 290.93, 84.9 267.25 M1.32 369.5 C29.77 336.63, 58.47 303.3, 85.29 272.9 M1.32 369.5 C33.91 332.94, 64.42 295.7, 85.29 272.9 M1.71 375.14 C31.76 338.94, 64.61 301.78, 85.03 279.29 M1.71 375.14 C25.51 346.56, 52.85 316.4, 85.03 279.29 M1.45 381.54 C19.86 360.18, 38.89 338.66, 85.43 284.94 M1.45 381.54 C24.36 357.01, 45.84 330.61, 85.43 284.94 M1.19 387.94 C21.87 364.58, 43.09 337.42, 85.16 291.33 M1.19 387.94 C19.64 367.22, 38.66 344.86, 85.16 291.33 M1.58 393.58 C22.44 369.86, 45.36 344.43, 84.9 297.73 M1.58 393.58 C19.09 373.48, 33.96 355.34, 84.9 297.73 M1.32 399.98 C24.34 376.12, 46.24 347.36, 85.3 303.37 M1.32 399.98 C29 369.37, 55.41 337.71, 85.3 303.37 M1.72 405.62 C28.44 376.89, 54.05 345.9, 85.04 309.77 M1.72 405.62 C21.31 382.85, 43.3 357.32, 85.04 309.77 M1.45 412.02 C33.66 377.87, 61.43 341.8, 85.43 315.42 M1.45 412.02 C31.18 378.6, 61.07 344.68, 85.43 315.42 M1.19 418.42 C30.54 381.37, 62.01 349.01, 85.17 321.81 M1.19 418.42 C34.09 381.51, 66.72 344.48, 85.17 321.81 M1.59 424.06 C32.34 391.52, 62.09 355.75, 84.91 328.21 M1.59 424.06 C28.5 394.88, 52.22 366.19, 84.91 328.21 M1.33 430.46 C24.48 400.02, 51.4 371.8, 85.3 333.85 M1.33 430.46 C26.15 402.07, 50.17 375.22, 85.3 333.85 M1.72 436.1 C32.62 399.2, 64.23 364.08, 85.04 340.25 M1.72 436.1 C31.21 403.52, 59.36 370.43, 85.04 340.25 M1.46 442.5 C23.93 417.96, 43.04 392.2, 85.44 345.9 M1.46 442.5 C30.31 407.17, 62.04 372.59, 85.44 345.9 M1.2 448.9 C18.81 428.51, 33.24 409.83, 85.17 352.29 M1.2 448.9 C28.49 417.86, 53.5 387.76, 85.17 352.29 M1.59 454.54 C24.57 427.89, 50 399.06, 84.91 358.69 M1.59 454.54 C26.02 426.36, 53.24 395.36, 84.91 358.69 M1.33 460.94 C31.24 426.97, 59.75 394.14, 85.31 364.33 M1.33 460.94 C33.12 423.96, 66.91 385.73, 85.31 364.33 M1.73 466.58 C28.18 433.81, 54.45 402.75, 85.05 370.73 M1.73 466.58 C32.32 432.89, 61.91 397.86, 85.05 370.73 M1.46 472.98 C29.7 437.72, 57.98 405.07, 85.44 376.37 M1.46 472.98 C21.72 450.29, 41.52 428.55, 85.44 376.37 M1.2 479.38 C34.14 440.67, 67.31 402.47, 85.18 382.77 M1.2 479.38 C22.53 457.39, 41.22 433.14, 85.18 382.77 M1.6 485.02 C26.11 454.21, 50.74 426.4, 84.92 389.17 M1.6 485.02 C21.12 460.67, 42.84 437.4, 84.92 389.17 M1.34 491.42 C31.03 455.66, 62.68 419.14, 85.31 394.81 M1.34 491.42 C18.23 472.53, 35.08 453.56, 85.31 394.81 M1.73 497.06 C31.66 462.83, 60.05 433.76, 85.05 401.21 M1.73 497.06 C29.36 464.42, 57.16 433.59, 85.05 401.21 M1.47 503.46 C24.42 474.37, 51.67 448.83, 85.44 406.85 M1.47 503.46 C17.69 483.41, 34.64 464.78, 85.44 406.85 M1.21 509.85 C27.22 478.92, 51.08 450.23, 85.18 413.25 M1.21 509.85 C26.67 479.33, 51.45 449.43, 85.18 413.25 M1.6 515.5 C18.88 494.26, 35.42 473.47, 84.92 419.65 M1.6 515.5 C28.77 484.51, 53.69 453.5, 84.92 419.65 M1.34 521.9 C28.42 490.46, 59.34 456.41, 85.32 425.29 M1.34 521.9 C26.6 492.72, 51.61 465.34, 85.32 425.29 M1.74 527.54 C27.58 497.97, 51.33 471.29, 85.06 431.69 M1.74 527.54 C29.85 496.59, 56.97 463.74, 85.06 431.69 M1.47 533.94 C20.65 514.75, 36.55 491.59, 85.45 437.33 M1.47 533.94 C30.36 501.97, 58.57 469.47, 85.45 437.33 M1.87 539.58 C17.8 520.21, 39.71 498.31, 85.19 443.73 M1.87 539.58 C28.98 507.75, 56.56 475.39, 85.19 443.73 M1.61 545.98 C25.47 522.04, 47.15 493.4, 84.93 450.13 M1.61 545.98 C35.67 509.23, 67.91 471.69, 84.93 450.13 M1.35 552.38 C28.77 521.78, 54.47 494.29, 85.32 455.77 M1.35 552.38 C30.57 520.34, 57.96 486.59, 85.32 455.77 M1.74 558.02 C23.09 530.89, 47.7 504.65, 85.06 462.17 M1.74 558.02 C28.04 527.69, 56.52 496.46, 85.06 462.17 M0.82 565.17 C18.42 546.23, 36.37 526.67, 85.45 467.81 M0.82 565.17 C24.56 538.73, 46.34 512.45, 85.45 467.81 M2.53 569.3 C24.85 539.8, 53.34 513.21, 85.19 474.21 M2.53 569.3 C28.5 540.72, 53.92 511.47, 85.19 474.21 M4.24 573.44 C21.85 553.01, 40.12 533.36, 84.93 480.61 M4.24 573.44 C33.14 540.3, 62.16 506.37, 84.93 480.61 M6.6 576.82 C31.33 549.14, 58.48 520.15, 85.33 486.25 M6.6 576.82 C24.26 555.2, 43.82 533.55, 85.33 486.25 M10.27 578.69 C37.87 545.88, 66.16 514.59, 85.06 492.65 M10.27 578.69 C38.4 546.77, 65.09 516.56, 85.06 492.65 M13.29 581.31 C40.75 549.9, 67.01 520.29, 85.46 498.29 M13.29 581.31 C34.79 556.48, 57.85 530.46, 85.46 498.29 M18.28 581.67 C40.49 555.43, 62.74 532.23, 85.2 504.69 M18.28 581.67 C41.68 555.66, 62.18 531.01, 85.2 504.69 M22.61 582.79 C37.6 567.55, 47.41 551.76, 84.94 511.09 M22.61 582.79 C38.39 564.42, 54.82 547.78, 84.94 511.09 M28.25 582.39 C44.37 561.84, 61.18 541.58, 85.33 516.73 M28.25 582.39 C42.21 566.2, 56.1 550.57, 85.33 516.73 M33.24 582.75 C43.79 568.37, 57.26 554.7, 85.07 523.13 M33.24 582.75 C47.09 566.16, 61.42 548.51, 85.07 523.13 M38.88 582.36 C55.93 566.14, 69.41 547.61, 85.46 528.77 M38.88 582.36 C56.76 563.43, 73.42 543.13, 85.46 528.77 M43.87 582.72 C60.17 564.03, 77.57 544.09, 85.2 535.17 M43.87 582.72 C57.74 566.98, 71.42 550.79, 85.2 535.17 M49.51 582.32 C55.3 575.95, 62.63 566.49, 85.6 540.81 M49.51 582.32 C61.45 569.22, 72.96 556.05, 85.6 540.81 M54.5 582.68 C63.13 572.99, 70.72 564.77, 85.34 547.21 M54.5 582.68 C62.66 572, 71.64 563.05, 85.34 547.21 M60.14 582.29 C70.29 573.34, 79.12 561.35, 85.07 553.61 M60.14 582.29 C70.85 571.68, 80.69 559.07, 85.07 553.61 M65.79 581.89 C71.73 575.52, 76.01 568.02, 84.16 560.76 M65.79 581.89 C71.54 575.02, 76.23 568.69, 84.16 560.76 M70.12 583.01 C72.77 580.28, 76.91 576.3, 82.58 568.67 M70.12 583.01 C73.64 579.32, 75.77 576.65, 82.58 568.67" stroke="#868e96" stroke-width="0.5" fill="none"></path><path d="M21 0 M21 0 C34.72 1.67, 48.02 -0.44, 63 0 M63 0 C75.5 -1.35, 85.43 6.01, 84 21 M84 21 C81.45 142.98, 82.44 264.24, 84 560 M84 560 C84.43 574.95, 75.27 581.87, 63 581 M63 581 C52.5 583.33, 37.47 579.47, 21 581 M21 581 C7.27 582.87, -0.63 572.69, 0 560 M0 560 C0.2 424.52, -0.44 290.76, 0 21 M0 21 C1.33 7.85, 7.34 -0.84, 21 0" stroke="#000000" stroke-width="1.5" fill="none" stroke-dasharray="1.5 7"></path></g><g transform="translate(360.8889736599394 32.652152651832466) rotate(0 36 20)"><text x="36" y="14" font-family="Virgil, Segoe UI Emoji" font-size="16px" fill="#000000" text-anchor="middle" style="white-space: pre;" direction="ltr">Shadow </text><text x="36" y="34" font-family="Virgil, Segoe UI Emoji" font-size="16px" fill="#000000" text-anchor="middle" style="white-space: pre;" direction="ltr">Boundray</text></g><g stroke-linecap="round" transform="translate(850.4325585743738 10.000000000000028) rotate(0 260 302.85715375627785)"><path d="M32 0 M32 0 C138.28 0.61, 244.86 1.36, 488 0 M32 0 C208.63 -0.83, 385.3 -1.02, 488 0 M488 0 C508.12 -1.27, 518.39 11.89, 520 32 M488 0 C510.38 -1.83, 518.46 10.64, 520 32 M520 32 C520.31 162.86, 520.64 294.26, 520 573.71 M520 32 C521.37 236.32, 521.57 440.43, 520 573.71 M520 573.71 C521.79 593.62, 508.12 605.91, 488 605.71 M520 573.71 C518.46 595.31, 507.06 604.31, 488 605.71 M488 605.71 C376.41 606.3, 266.33 606.18, 32 605.71 M488 605.71 C363.88 604.17, 239.01 603.95, 32 605.71 M32 605.71 C10.54 606.11, -1.35 595.38, 0 573.71 M32 605.71 C11.84 605.54, -0.69 592.8, 0 573.71 M0 573.71 C2.21 462.15, 1.73 351.7, 0 32 M0 573.71 C2.04 458.47, 2.38 343.26, 0 32 M0 32 C0.85 9.91, 9.37 0.48, 32 0 M0 32 C0.16 12.37, 11.68 0.9, 32 0" stroke="#000000" stroke-width="1" fill="none"></path></g><g transform="translate(906.2897363087486 30.92851911272325) rotate(0 209.5 12.5)"><text x="0" y="18" font-family="Virgil, Segoe UI Emoji" font-size="20px" fill="#000000" text-anchor="start" style="white-space: pre;" direction="ltr">Flattened Tree (when rendered in browser)</text></g><g stroke-linecap="round" transform="translate(974.2611544170072 78.57141767229353) rotate(0 46 45)"><path d="M10.92 14.79 C10.92 14.79, 10.92 14.79, 10.92 14.79 M10.92 14.79 C10.92 14.79, 10.92 14.79, 10.92 14.79 M5.73 28.05 C10.9 23.08, 17.4 13.7, 21.33 6.15 M6.38 26.55 C10.42 21.78, 14.46 17.19, 22.66 6.91 M2.71 39.17 C11.27 26.18, 25.5 11.06, 32.87 2.6 M2.21 38.76 C9.62 28, 18.29 18.39, 33.44 2.06 M0.53 44.86 C15.16 24.98, 30.14 9.47, 37.54 0.37 M3.14 42.95 C14.4 30.07, 24.42 16.72, 39.15 0.28 M3.52 46.7 C15.79 32.3, 26.8 18.85, 42.67 2.21 M1.96 48.27 C12.5 38.84, 21.08 27.52, 44.46 0.38 M3.69 53.37 C15.51 42, 24.41 29.23, 50.25 0.57 M2.1 54.38 C19.42 35.14, 35.63 15.77, 49.43 0.51 M3.65 58.66 C19.51 40.53, 38.51 18.35, 54.37 -0.48 M4.31 59.74 C23.06 38.21, 39.74 17.75, 54.68 0.37 M4.82 65.54 C20.87 44.9, 37.5 25.78, 60.78 -0.47 M4.58 63.86 C23.39 41.78, 41.43 20.86, 58.69 2.23 M8.18 68.85 C24.47 48.7, 44.03 29.18, 62.32 5.74 M6.7 68.31 C28.42 42.65, 48.68 19.64, 63.01 3.42 M11.21 71.08 C26.24 52.83, 38.19 37.34, 64.39 5.87 M8.91 70.74 C24.4 54.66, 38.77 37.09, 65.45 6.53 M13.96 71.61 C26.78 59.76, 38.79 45.1, 70.55 9.83 M13.73 74.31 C26.51 55.84, 41.11 41.1, 69.45 9.25 M16.63 77.71 C28.13 63.53, 39.96 49.42, 73.97 9.39 M15.3 77.02 C28.04 60.61, 42.19 44.09, 73.22 10.31 M16.98 78.53 C36.23 59.45, 55.09 36.69, 76.88 14.98 M18.52 79.91 C29.23 65.21, 43.07 52.12, 75.08 12.48 M21.9 81.88 C33.62 70.39, 45.82 52.98, 78.18 16.42 M20.38 82.08 C37.92 63.45, 54.69 43.18, 78.66 15.61 M22.9 86.95 C36.17 68.51, 53.89 52.51, 83.51 16.15 M23.22 85.67 C36.11 71.24, 51.51 55.21, 82.82 18.08 M28.21 87.29 C39.28 72.73, 53.88 56.26, 84.17 23.3 M28.53 87.13 C44.3 68, 61.58 48.31, 84.29 21.12 M33.11 86.16 C51.25 69.57, 64.95 49.63, 87.17 26.32 M33.09 86.74 C50.07 68.22, 65.96 49.09, 85.45 25.71 M35.9 86.91 C54.76 70.4, 69.88 48.52, 86.14 31.11 M36.65 89.31 C46.59 76.78, 57.96 65.43, 87.04 30.9 M42.86 88.79 C57.73 71.65, 73.1 51.7, 88.84 33.18 M40.64 90.21 C60.75 67.87, 79.31 45.74, 89.39 34.32 M47.69 91.19 C61.14 71.18, 76.81 55.23, 91.3 39.43 M47.39 89.85 C61.27 72.7, 74.98 57.67, 92.28 38.12 M54.37 87.13 C66.67 74.85, 75 59.67, 92.68 41.68 M52.7 87.47 C63.71 74.42, 74.49 62.44, 93.6 40.78 M58.69 85.81 C69.36 77.07, 78.66 66.66, 94.09 49.62 M61.17 85.85 C72.19 73.07, 81.78 60.39, 91.92 48.35 M68.36 84.04 C77.98 74.64, 83.66 64.65, 92.69 56.07 M68 83.08 C72.69 77.38, 77.49 71.37, 90.28 55.88" stroke="#4c6ef5" stroke-width="0.5" fill="none"></path><path d="M33.15 0.76 C40.48 -2.08, 52.08 -1.24, 59.92 1.29 C67.76 3.81, 75.04 9.63, 80.21 15.92 C85.37 22.2, 89.79 31.09, 90.91 39.01 C92.03 46.93, 90.33 56.16, 86.9 63.44 C83.47 70.72, 77.07 78.41, 70.34 82.68 C63.6 86.95, 54.83 88.93, 46.48 89.06 C38.14 89.19, 27.35 87.68, 20.26 83.46 C13.18 79.23, 7.18 71.35, 3.98 63.73 C0.79 56.11, -0.04 45.84, 1.08 37.72 C2.19 29.61, 3.91 21.21, 10.68 15.07 C17.44 8.93, 35.17 3.1, 41.68 0.9 C48.2 -1.3, 49.69 1.22, 49.75 1.89 M57.52 2.56 C65.5 4.11, 75.84 8.33, 81.59 14.28 C87.34 20.24, 90.84 30.28, 92.01 38.28 C93.18 46.27, 91.89 54.82, 88.6 62.25 C85.32 69.67, 79.17 78.12, 72.31 82.84 C65.46 87.56, 55.74 90.36, 47.49 90.58 C39.24 90.79, 29.83 88.32, 22.83 84.15 C15.83 79.98, 9.1 72.95, 5.5 65.55 C1.89 58.16, 0.1 47.99, 1.22 39.78 C2.34 31.56, 6.86 22.77, 12.22 16.26 C17.58 9.76, 25.6 3.07, 33.4 0.74 C41.2 -1.59, 54.71 2.13, 59.05 2.28 C63.38 2.43, 59.8 0.92, 59.43 1.64" stroke="#000000" stroke-width="1" fill="none"></path></g><g transform="translate(982.7611544170072 113.57141767229359) rotate(0 37.5 10)"><text x="37.5" y="14" font-family="Virgil, Segoe UI Emoji" font-size="16px" fill="#000000" text-anchor="middle" style="white-space: pre;" direction="ltr">Document</text></g><g stroke-linecap="round" transform="translate(909.4611361064608 198.57138715471547) rotate(0 44 43.19999694824219)"><path d="M4.43 22.4 C4.43 22.4, 4.43 22.4, 4.43 22.4 M4.43 22.4 C4.43 22.4, 4.43 22.4, 4.43 22.4 M4.02 31.31 C12.83 19.15, 17.11 11.01, 23.06 7.37 M4.2 29.33 C11.08 21.35, 18.51 11.7, 24.45 5.77 M0.26 38.54 C8.74 29.6, 13.38 24.72, 30.25 5.9 M1.89 37.09 C7.41 30.54, 13.58 24.49, 31.72 4.32 M-0.47 42.9 C9.06 33.75, 17.11 24.09, 37.42 3.54 M1.65 45.2 C12.68 30.31, 26.75 14.3, 37.23 3.98 M4.02 46.1 C10.58 37.94, 19.19 29.54, 42.41 0.26 M4.01 48.18 C13.04 36.88, 22.41 26.42, 43.31 0.74 M6.97 51.51 C16.97 37.49, 29.42 24.69, 50.93 0.43 M4.76 52.37 C21.57 32.85, 39.43 12.68, 50.11 1.45 M4.67 58.61 C24.85 35.36, 42.61 13.45, 54.58 2.06 M6.71 56.65 C16.41 43.84, 28.78 29.92, 53.42 3.21 M7.32 60.52 C17.71 48.32, 29.62 35.26, 57.73 5.77 M8.27 60.2 C27.25 38.69, 44.86 18.78, 57.19 4.7 M9.28 66.26 C25.28 50.24, 37 34.42, 63.01 5.86 M9.49 65 C28.17 43.92, 48.35 20.56, 60.91 5.38 M11.84 69.75 C29.7 46.91, 48.87 23.31, 64.21 9.49 M10.56 71.11 C24.11 55.26, 35.93 41.41, 64.16 7.05 M15.33 72.77 C32.09 52.77, 48.43 35.54, 67.7 10.74 M13.66 71.83 C35.74 47.41, 57.29 22.31, 67.8 10.05 M18.14 76.02 C37.91 52.03, 58.21 26.92, 71.29 12.05 M15.74 75.11 C31.78 56.29, 49.21 37.95, 72.61 11.01 M19.36 78.58 C34.11 61.25, 49.58 47.23, 73.1 15.53 M18.93 77.14 C32.17 64.25, 43.39 48.59, 73.9 14.4 M23.07 82.42 C38.13 61.53, 52.82 45.55, 76.97 16.91 M22.52 81.17 C41.57 58.91, 60.81 36.9, 76.63 18.71 M24.4 82.16 C38.37 70.33, 48.83 56.03, 78.72 19.81 M24.88 83.54 C38.86 69.28, 50.41 55.66, 79.47 20.99 M27.8 86.8 C49.53 61.87, 69.65 39.89, 82.28 23.77 M29.33 85.59 C49.07 62.42, 67.01 40.47, 82.66 23.11 M35.79 86.96 C48.59 68.19, 67.71 48.98, 85.17 26.17 M34.8 85.26 C46.23 71.24, 59.08 56.16, 85.24 27.98 M40.56 87.7 C57.07 64.92, 74.71 45.1, 85.37 31.83 M39.03 86.02 C54.63 69.58, 68.17 52.53, 87.67 31.33 M45.35 86.44 C56.86 70.65, 70.39 54.26, 89.49 36.95 M45.82 85.17 C56.73 71.92, 67.53 59.69, 87.76 35.95 M50.08 83.99 C64.7 68.66, 75.84 56.79, 88.2 40.84 M50.33 85.04 C61.03 72.98, 72.6 60.4, 87.81 41.65 M57.36 85.8 C66.95 69.09, 79.69 56.68, 87.79 47.22 M54.9 84.52 C64.72 74.08, 74.87 62.91, 88 46.81 M65.4 81.21 C72.32 73.81, 78.17 68.34, 89.02 53.22 M65.66 80.54 C70.96 72.57, 78.1 64.16, 88.9 53.64" stroke="#12b886" stroke-width="0.5" fill="none"></path><path d="M47.92 -0.54 C55.39 -0.41, 63.6 4, 69.72 8.81 C75.84 13.62, 81.88 21.11, 84.63 28.31 C87.38 35.5, 87.84 44.44, 86.2 51.97 C84.55 59.5, 80.15 68.08, 74.79 73.51 C69.43 78.93, 61.86 82.71, 54.04 84.53 C46.23 86.35, 35.47 86.97, 27.9 84.44 C20.33 81.9, 13.18 75.81, 8.64 69.34 C4.09 62.87, 1.3 53.47, 0.63 45.61 C-0.03 37.74, 0.89 28.78, 4.64 22.15 C8.4 15.53, 14.97 9.23, 23.16 5.86 C31.35 2.49, 47.67 2.23, 53.79 1.94 C59.91 1.65, 59.93 3.56, 59.89 4.1 M26.93 2.99 C33.79 -0.74, 43.13 -0.49, 50.88 0.61 C58.63 1.71, 67.36 4.46, 73.42 9.58 C79.49 14.71, 84.97 23.6, 87.27 31.34 C89.56 39.08, 89.4 48.41, 87.2 56.01 C85 63.61, 80.03 71.69, 74.05 76.92 C68.07 82.15, 59.26 86.35, 51.33 87.39 C43.4 88.43, 33.66 86.59, 26.48 83.17 C19.31 79.76, 12.53 73.75, 8.26 66.87 C3.98 59.99, 0.94 49.67, 0.83 41.92 C0.72 34.17, 3.22 26.87, 7.58 20.38 C11.94 13.89, 23.95 5.48, 26.98 2.96 C30.01 0.43, 25.57 4.29, 25.76 5.23" stroke="#000000" stroke-width="1" fill="none"></path></g><g stroke-linecap="round" transform="translate(1142.9468495202436 157.88571384974898) rotate(0 52.399993896484375 48.399993896484375)"><path d="M19.34 11.51 C19.34 11.51, 19.34 11.51, 19.34 11.51 M19.34 11.51 C19.34 11.51, 19.34 11.51, 19.34 11.51 M4.5 32.22 C16.56 24, 26.45 10.72, 30.3 6.16 M5.26 33.61 C13.01 23.41, 21.67 16.16, 28.08 7.13 M6.47 39.61 C18.23 25.23, 29.99 15.19, 37.75 1.68 M5.93 41.08 C14.46 28.71, 22.91 19.44, 37.1 1.57 M3.71 47.62 C14.88 37.09, 26.36 24.02, 45.4 2.46 M3.63 47.43 C12.94 36.93, 20.71 27.36, 44.46 0.33 M2.31 55.08 C11.78 42.47, 22.68 30.1, 50.39 2.02 M0.48 55.98 C16.61 38.39, 32.79 20.59, 50.07 1.33 M2.02 62.09 C19.48 43.08, 34.43 22.75, 53.47 2.49 M1.96 61.27 C15.33 48.02, 26.18 33.38, 53.38 2.79 M3.07 66.2 C21.38 44.17, 39.53 26.72, 60.24 1.64 M3.92 65.04 C16.2 51.29, 26.58 40.17, 58.84 2.04 M5.08 69.05 C24.21 51.57, 37.57 31.33, 64.95 0.82 M7.78 68.52 C26.52 47.04, 45.43 26.48, 63.95 3.2 M10.37 74.14 C32.45 46.3, 54.63 19.02, 68.96 2.51 M8.05 72.04 C20.97 57.89, 35.06 42.14, 70.02 2.49 M11 75.04 C30.42 55.34, 43.82 36.44, 74.65 4.56 M11.66 74.99 C32.54 51.8, 55.01 26.1, 74.26 4.18 M14.04 78.99 C39.49 52.89, 64.8 23.8, 76.5 4.89 M13.46 79.09 C36.16 54.07, 59.22 27.38, 77.18 7.11 M14.65 80.77 C41.15 53.53, 64.37 26.63, 78.3 8.07 M15.57 82.1 C31.53 64, 46.19 46.58, 79.95 8.95 M21.39 82.84 C39.15 61.49, 58.6 40.92, 81.66 9.5 M18.88 83.64 C40.88 59.64, 63.78 33.92, 83.31 12.19 M23.88 86.22 C42.12 65.16, 62.29 40.01, 86.49 14.19 M23.06 85.88 C40.25 66.9, 55.82 49.44, 86.15 12.61 M24.76 87.58 C49.16 59.87, 74.26 32.76, 88.18 16.3 M26.69 88.33 C51.64 60.92, 76.47 31.63, 89.03 16.62 M31.45 90.64 C48.4 70.39, 68.63 48.55, 93.42 18.54 M29.27 91.02 C54.65 62.05, 81.28 31.93, 94.2 18.39 M33.36 93.79 C44.37 77.24, 60.22 61.12, 96.08 21.28 M32.74 93.87 C48.33 77.58, 62.31 58.58, 95.8 22.71 M37.69 93.5 C53.22 78.18, 67.7 61.07, 96.92 25.47 M37.48 95.81 C57.64 71.55, 79.25 46.45, 97.74 25.66 M40.61 97.59 C56.58 78.43, 69.97 62.88, 100.93 28.69 M41.75 95.86 C60.56 74.26, 80.74 52.52, 99.32 28.39 M48.47 96.26 C66.49 72.34, 89.97 49.16, 101.68 31.85 M47.16 95.88 C62.83 77.29, 80.54 56.77, 101.84 33.63 M51.57 95.82 C64.17 81.99, 75.48 67.39, 101.24 35.73 M50.67 96.03 C62.75 82.31, 74.56 69.27, 102.78 37.92 M57.34 97.67 C73.17 76.35, 92.84 56.37, 105.96 41 M56.07 97.55 C65.79 85.53, 76.47 74.77, 105.81 41.39 M61.53 95.09 C72.15 84.56, 81.3 73.39, 103.76 47.67 M61.34 97.24 C70.99 87.15, 80.06 76.67, 104.31 49 M72.63 92.43 C81.84 79.59, 96.25 65.86, 103.06 54.33 M71.4 92.45 C80.45 82.75, 87.48 72.22, 104.6 55.47 M79.92 86.72 C88.13 81.04, 94.45 74.13, 102.18 62.71 M80.35 86.41 C86.39 80.41, 92.2 74.17, 103.55 61.66" stroke="#12b886" stroke-width="0.5" fill="none"></path><path d="M42.76 -0.15 C50.97 -2.35, 62.17 -0.53, 70.48 2.27 C78.78 5.07, 87.1 10.35, 92.58 16.64 C98.06 22.92, 101.92 31.75, 103.35 39.98 C104.79 48.21, 104.22 58.5, 101.17 66.02 C98.12 73.54, 91.53 80.07, 85.04 85.08 C78.55 90.1, 70.6 94.56, 62.22 96.11 C53.85 97.66, 43.23 97.31, 34.82 94.38 C26.41 91.45, 17.46 84.83, 11.76 78.55 C6.07 72.27, 1.97 64.53, 0.66 56.7 C-0.65 48.87, 0.74 39.15, 3.9 31.57 C7.07 23.98, 11.61 16.34, 19.64 11.17 C27.66 6, 45.33 2.31, 52.04 0.55 C58.76 -1.2, 60.06 -0.17, 59.93 0.64 M72.19 4.09 C80.15 6.39, 87.3 13.21, 92.69 19.64 C98.08 26.07, 103.06 34.64, 104.54 42.67 C106.02 50.7, 104.7 60.32, 101.56 67.82 C98.42 75.32, 92.43 82.79, 85.69 87.68 C78.94 92.56, 69.81 96, 61.1 97.15 C52.4 98.3, 41.74 97.6, 33.47 94.58 C25.2 91.56, 17.17 85.51, 11.47 79.02 C5.77 72.54, 0.47 63.62, -0.71 55.69 C-1.89 47.76, 1.08 39.09, 4.41 31.46 C7.73 23.82, 12.35 14.95, 19.22 9.87 C26.1 4.79, 36.75 1.86, 45.68 0.95 C54.6 0.04, 68.43 4.01, 72.78 4.41 C77.12 4.81, 71.98 2.86, 71.73 3.37" stroke="#000000" stroke-width="1" fill="none"></path></g><g transform="translate(1163.3468434167276 186.28570774623324) rotate(0 32 20)"><text x="32" y="14" font-family="Virgil, Segoe UI Emoji" font-size="16px" fill="#000000" text-anchor="middle" style="white-space: pre;" direction="ltr">shadow </text><text x="32" y="34" font-family="Virgil, Segoe UI Emoji" font-size="16px" fill="#000000" text-anchor="middle" style="white-space: pre;" direction="ltr">host</text></g><g stroke-linecap="round" transform="translate(906.2611544170077 324.17145429338734) rotate(0 51.600006103515625 47.199981689453125)"><path d="M15.85 13.78 C15.85 13.78, 15.85 13.78, 15.85 13.78 M15.85 13.78 C15.85 13.78, 15.85 13.78, 15.85 13.78 M3.68 36.67 C10.19 27.58, 15.21 22.08, 25.99 9.48 M2.09 34.38 C10.74 27.2, 16.5 18.79, 25.91 8.51 M3.85 39.79 C12.96 32.57, 19.92 20.23, 34.74 4.13 M2.28 41.05 C11.12 30.64, 21.36 17.25, 34.55 3.62 M2.39 49.26 C12.42 37.89, 20.57 29.32, 38.1 5.47 M2.82 47.2 C14.58 33.25, 26.45 19.51, 39.37 4.05 M0.75 52.95 C10.32 42.16, 23.26 31.53, 46.07 2.33 M1.23 54.07 C17.65 36.76, 33.53 19.38, 45.86 3.16 M1.71 61.6 C18.35 39.33, 37.49 19.13, 49.87 3.44 M2.72 60.98 C19.4 40.09, 35.88 21.62, 51.43 3.14 M3.83 62.29 C20.44 46.85, 36.25 27.72, 55 3.37 M4.98 62.57 C20.78 45.7, 36.75 26.19, 56.69 2.78 M8.04 68.51 C26.28 43.19, 48.28 18.78, 63.14 0.82 M6.96 66.56 C18.28 54.08, 29.45 40.5, 63.55 3.41 M9.37 71.56 C23.61 52.31, 41.74 30.97, 65.91 4.86 M8.89 70.99 C30.09 47.84, 50.18 24.37, 67.33 2.97 M13.5 72.38 C21.84 59.59, 37.21 46.16, 72.12 3.63 M11.06 73.7 C24.54 58.41, 37.74 44.53, 72.16 4.43 M14.58 79.76 C36.79 54.05, 57.51 24.81, 76.15 7.67 M13.89 78.38 C32.76 56.54, 52.13 34.21, 75.67 6.85 M16.38 80.82 C40.37 54.16, 62.52 25.59, 77.21 7.09 M15.35 80.76 C40.42 51.98, 65.07 24.94, 78.5 8.35 M20.16 81.59 C42 58, 60.37 31.97, 83.18 11.63 M19.04 82.89 C33.37 68.08, 45.96 54.47, 82.34 9.88 M21.84 85.92 C38.4 64.68, 54.84 48.61, 85.06 12.16 M23.64 83.92 C39.56 66.45, 55.56 46.44, 86.68 12.45 M25.79 85.29 C49.01 61.38, 68.39 38.36, 91.48 14.11 M26.97 87.56 C46.02 64.91, 64.77 42.78, 89.58 14.41 M30.04 89.78 C48.59 69.31, 65.2 48.68, 93.93 16.58 M29.38 88.84 C48.85 67.33, 66.92 48.42, 91.07 18.17 M32.74 89.6 C56.38 64.24, 76.76 41.48, 92.47 21.98 M34.55 91.33 C47.59 73.31, 62.47 59.19, 93.22 21.69 M38.04 93.29 C49.33 79.97, 61.43 64.67, 96.99 27.1 M37.54 93.22 C50.4 77.21, 62.73 63.2, 95.57 25.28 M41.19 94.26 C55.63 77.33, 73.3 58.55, 99.04 27.57 M40.19 95.49 C57.56 76.74, 73.58 56.01, 99.21 27.8 M45.08 94.52 C61.78 78.39, 75.51 59.47, 100.31 33.17 M45.89 95.42 C64.52 73.49, 83.21 52.98, 99.57 31.7 M50.81 94.71 C62.52 79.78, 75.83 63.36, 101.09 34.99 M50.4 94.41 C66.23 77.52, 82.61 60.17, 103.08 35.98 M56.05 94.58 C74.99 74.98, 91.65 55.26, 100.9 41.78 M56.47 94.15 C67.85 82.52, 78.43 71.06, 102.06 42.23 M63.65 93.21 C78.92 75.44, 92.72 59.05, 100.8 48.37 M62.7 94.67 C72.02 83.99, 80.53 74.71, 103.3 48.85 M66.09 96.34 C79.8 83.03, 89.31 68.03, 102.02 53.69 M68.22 95.3 C80.55 78.47, 94.93 64.67, 102.91 52.79 M79.88 88.71 C88.76 79.01, 96.37 67.83, 101.15 62.05 M79.36 86.9 C86.3 79.66, 93.19 72.14, 101.76 60.62" stroke="#12b886" stroke-width="0.5" fill="none"></path><path d="M64.63 0.83 C72.83 2.08, 81.77 7.23, 87.78 12.84 C93.79 18.46, 98.45 26.66, 100.67 34.52 C102.89 42.39, 103.32 52.49, 101.11 60.04 C98.9 67.6, 93.23 74.42, 87.41 79.86 C81.58 85.31, 74.22 90.46, 66.16 92.72 C58.11 94.98, 47.6 95.55, 39.06 93.42 C30.53 91.29, 21.18 85.55, 14.96 79.94 C8.74 74.33, 3.84 67.22, 1.74 59.75 C-0.36 52.29, 0.04 42.77, 2.36 35.14 C4.68 27.52, 9.71 19.47, 15.67 13.99 C21.63 8.51, 29.73 4.4, 38.12 2.25 C46.51 0.09, 61.23 0.79, 65.99 1.05 C70.75 1.31, 66.76 3.02, 66.67 3.82 M60.06 1.83 C68.24 2.61, 78.61 7.19, 85.41 12.35 C92.21 17.51, 97.85 25.35, 100.84 32.79 C103.83 40.23, 104.79 49.34, 103.36 56.99 C101.92 64.65, 97.86 72.72, 92.21 78.72 C86.56 84.73, 77.75 90.4, 69.47 93.02 C61.18 95.64, 51.27 96, 42.5 94.43 C33.72 92.86, 23.31 88.67, 16.82 83.61 C10.32 78.55, 6.34 71.67, 3.53 64.09 C0.71 56.52, -1.62 46, -0.04 38.15 C1.53 30.3, 7.1 22.75, 12.97 16.98 C18.84 11.22, 27.15 6.44, 35.18 3.57 C43.21 0.7, 56.67 0.14, 61.15 -0.25 C65.64 -0.65, 62.22 0.49, 62.09 1.19" stroke="#000000" stroke-width="1" fill="none"></path></g><g stroke-linecap="round"><g transform="translate(981.4611361064603 150.57138715471547) rotate(0 -7.35238237045246 24.319062148472284)"><path d="M-1.12 0.61 C-3.68 8.64, -12.99 39.87, -15.2 47.76 M0.5 -0.11 C-1.7 8.06, -10.31 40.59, -12.91 48.75" stroke="#000000" stroke-width="1" fill="none"></path></g></g><mask></mask><g stroke-linecap="round"><g transform="translate(1063.7700868093866 142.795745187183) rotate(0 50.642382536603805 11.656605760822998)"><path d="M0.61 -0.8 C17.29 3.14, 83.1 18.68, 99.65 22.56 M-0.53 1.39 C16.55 5.64, 84.67 20.39, 101.81 24.11" stroke="#000000" stroke-width="1" fill="none"></path></g></g><mask></mask><g stroke-linecap="round"><g transform="translate(956.341449986005 286.45287147764066) rotate(0 0.41999443471434006 17.619563262308986)"><path d="M-0.8 -1.04 C-0.34 4.72, 1.25 29.15, 1.64 35.17 M0.98 1.03 C1.38 6.87, 0.75 30.46, 0.71 36.28" stroke="#000000" stroke-width="1" fill="none"></path></g></g><mask></mask><g stroke-linecap="round" transform="translate(1077.861132182772 307.4285518101285) rotate(0 44 43.19999694824219)"><path d="M7.88 17.45 C7.88 17.45, 7.88 17.45, 7.88 17.45 M7.88 17.45 C7.88 17.45, 7.88 17.45, 7.88 17.45 M6.02 27.16 C8.97 19.79, 18.63 14.65, 23.01 9.27 M3.75 27.02 C7.56 24.2, 12.81 17.86, 21.19 7.08 M0.83 36.3 C11.21 24.18, 22.39 14.9, 28.12 5.37 M1.18 37.92 C8.91 30.43, 13.47 22.59, 29.88 5.09 M0.35 42.24 C13.38 32.96, 22.24 20.12, 34.61 3.24 M1.09 41.96 C11.05 30.81, 20.67 20.12, 34.8 4.76 M3.92 46.55 C11.26 34.81, 23.29 24.66, 40.58 2.96 M2.93 47.36 C10.97 38.98, 19.71 29, 40.56 3.8 M4.94 52.21 C13.48 39.12, 24.84 30.17, 46.4 1.99 M4.71 51.66 C18.84 36.2, 32.77 19, 46.27 3.45 M3.74 54.79 C18.05 45.81, 29.76 30.93, 52.92 1.45 M5.56 57.17 C22.91 38.09, 37.29 18.77, 53.48 3.04 M5.81 60.81 C25.72 41.79, 44.58 18.67, 57.59 5.61 M5.72 61.53 C26.32 39.3, 43.99 18.8, 56.06 3.7 M7.86 64.87 C26.22 46.9, 41.78 28.01, 59.92 3.83 M8.37 65.16 C28.16 43.95, 45.68 22.67, 61.38 4.59 M11.37 68.74 C23.51 54.05, 37.94 36.9, 63.09 6.16 M10.95 68.55 C29.38 48.61, 48 26.02, 63.69 6.69 M13.48 70.34 C30.77 53.03, 49.77 30.17, 69.36 7.02 M13.71 71.49 C30.51 51.04, 48.71 31.92, 67.31 8.79 M15.75 74.96 C38.28 51.6, 55.58 27.91, 70.92 10.73 M16.33 74.58 C28.73 61.03, 39.41 46.72, 71.19 11.21 M18.35 77.05 C36.13 58.19, 55.6 35.88, 76.1 13.23 M19.8 77.23 C39.61 52.77, 61.63 28.02, 74.86 11.86 M23.55 80.43 C35.3 66.24, 48.2 51.54, 77.52 14.15 M21.66 80.13 C38.39 61.61, 53.6 45.15, 78.37 16.45 M25.23 81.33 C45.01 57.23, 67.66 31.52, 80.86 19.45 M25.29 82.55 C43.8 60.59, 64.64 37.14, 78.79 19.46 M30.38 82.35 C47.81 64.99, 62.86 47.22, 81.09 25.51 M29.11 84.54 C46.56 65.39, 64.02 46.05, 82.18 24.46 M32.6 83.5 C53.84 63.37, 73.53 38.6, 84.65 29.35 M33.9 84.24 C52.53 62.28, 72.53 39.78, 83.54 28.55 M39.62 86.43 C49.34 74.74, 59.78 60.45, 84.21 29.12 M40 84.31 C58.31 63.11, 75.55 42.94, 85.31 31.15 M42.78 84.92 C55.88 72.25, 67.06 62.17, 87.6 35.89 M44.58 86.74 C55.95 71.5, 66.3 58.87, 88.05 33.98 M49.14 84.38 C58.94 75.3, 69.98 62.77, 87.26 40.09 M49.5 84.56 C58.38 74.63, 69.04 62.13, 87.66 41.84 M59.06 80.87 C70.91 68.13, 81.15 52.88, 89.69 45.06 M56.62 83.09 C65.83 73.8, 73.67 63.36, 88.51 46.29 M66.4 81.12 C70.56 73.24, 74.37 69.22, 86.36 53.5 M63.76 80.25 C73.3 70.5, 80.54 61.11, 88.2 52.47" stroke="#fd7e14" stroke-width="0.5" fill="none"></path><path d="M27.29 3.95 C33.9 0.41, 43.2 -0.95, 51.11 0.32 C59.03 1.6, 68.91 6.13, 74.76 11.59 C80.61 17.05, 84.27 25.52, 86.21 33.07 C88.15 40.61, 88.97 49.42, 86.39 56.87 C83.81 64.31, 76.92 73, 70.73 77.73 C64.55 82.47, 57.15 84.61, 49.29 85.27 C41.43 85.92, 30.71 85.14, 23.56 81.66 C16.41 78.18, 10.36 71.08, 6.42 64.39 C2.47 57.7, -0.31 49.29, -0.1 41.51 C0.1 33.73, 1.35 24.49, 7.65 17.72 C13.95 10.94, 30.68 3.46, 37.68 0.87 C44.69 -1.72, 49.26 1.64, 49.66 2.2 M62.67 3.05 C70.03 5.22, 76.17 11.07, 80.16 17.65 C84.15 24.24, 86.26 34.8, 86.61 42.56 C86.97 50.31, 86.2 57.82, 82.28 64.19 C78.37 70.55, 70.54 76.96, 63.14 80.77 C55.73 84.58, 45.61 87.79, 37.84 87.05 C30.08 86.32, 22.52 81.48, 16.56 76.36 C10.6 71.25, 4.48 63.51, 2.09 56.36 C-0.31 49.21, -0.1 40.98, 2.19 33.45 C4.48 25.91, 10.24 16.73, 15.83 11.15 C21.42 5.57, 28.15 1.21, 35.73 -0.01 C43.3 -1.24, 57.24 3.07, 61.29 3.79 C65.33 4.51, 60.3 3.83, 60 4.29" stroke="#000000" stroke-width="1" fill="none"></path></g><g stroke-linecap="round" transform="translate(1218.7753472706625 309.02855791364414) rotate(0 52.399993896484375 48.399993896484375)"><path d="M4.21 27.51 C4.21 27.51, 4.21 27.51, 4.21 27.51 M4.21 27.51 C4.21 27.51, 4.21 27.51, 4.21 27.51 M4.6 37.03 C8.54 28.44, 10.78 25.36, 23.1 9.31 M1.65 35.2 C6.5 30, 13.18 22.88, 23.97 10.14 M1.86 41.68 C11.43 30.13, 18.85 21.54, 31.35 9.62 M1.91 43.44 C12.77 29.59, 25.3 15.91, 31.15 7.63 M1.71 49.02 C14.27 32.4, 29 14.36, 38.64 2.99 M0.41 49.21 C10.7 39.26, 18.28 30.35, 40.67 3.93 M1.04 54.24 C12.18 40.38, 22.47 29.16, 49.14 -0.14 M2.43 54.22 C12.79 40.78, 24.91 29.18, 49.58 0.14 M4.09 57.9 C18.6 41.55, 34.78 25.33, 54.93 -0.21 M3.99 57.76 C20.89 38.58, 37.11 18.67, 52.46 0.48 M4.88 62.9 C22.86 41.46, 41.37 20.46, 57.55 3.66 M4.58 63.46 C26.61 40.04, 45.86 15.21, 57.3 2.16 M5.75 68.03 C25.96 47.82, 42.16 24.72, 60.1 3.72 M7.92 66.5 C26.19 45.23, 45.01 23.37, 61.8 3.24 M7.17 70.17 C29.74 46.1, 51.7 18.04, 66.98 3.07 M8.01 71.62 C30.04 46.13, 52.47 21.94, 67.36 3.85 M9.59 74.55 C23.89 59.15, 40.81 41.43, 71.73 4.2 M9.26 75.15 C29.48 51.84, 50.29 27.89, 71.24 4.45 M11.24 80.52 C25.67 61, 42.9 42.68, 75.55 5.95 M12.51 78.47 C25.38 64.84, 38.57 48.72, 75.19 6.56 M14.01 80.27 C40.6 51.1, 64.88 24.59, 77.77 9.5 M15.19 80.55 C35.01 60.09, 52.91 37.59, 78.33 8.54 M17.96 84.41 C33.26 68.99, 48.71 50.08, 83.02 10.66 M18.05 83.17 C34.89 63.78, 51.69 45.76, 82.44 11.54 M20.42 86.08 C41.79 60.42, 65.59 35.01, 84.37 13.09 M22.54 86.93 C45.33 61.45, 68.35 34.71, 85.45 12.55 M23.22 90.35 C39.31 73.2, 55.68 53.8, 88.61 15.3 M24.24 88.27 C36.89 74.22, 49.7 58.57, 88.87 15.13 M28.45 90.08 C54.87 63.47, 77.28 33.5, 91.27 18.93 M28.96 91.17 C49.21 68.27, 68.5 45.18, 91.17 17.39 M30.42 94.56 C51.97 72.87, 70.41 48.49, 93.89 20.22 M30.83 93.44 C45.66 77.67, 58.09 62.87, 95.2 21.3 M35.96 92.12 C50.31 77.18, 68.38 55.34, 97.83 23.78 M36.97 93.22 C56.47 71.53, 75.22 49.76, 96.32 24.12 M42.51 93.5 C63.06 70.43, 82.36 50.12, 100.03 30.55 M41.73 93.96 C62.28 70.19, 83.83 47.25, 98.39 28.18 M46.41 94.54 C59.48 77.17, 76.03 61.91, 100.28 31.11 M45.31 94.94 C58.52 82.41, 69.69 68.15, 101.25 31.89 M50.13 96.93 C67.67 74.49, 86.28 53.29, 101.01 37.62 M51.2 95.75 C64.67 78.71, 79.61 62.1, 102.82 37.48 M56.83 94.22 C72.48 78.76, 87.76 61.7, 101.77 41.38 M54.95 96.06 C73.65 74.64, 92.49 53.81, 103.82 40.24 M58.13 99.84 C68.93 84.31, 81.99 75.26, 105.79 46.29 M60.28 97.37 C72.88 82.22, 84.46 67.65, 104.5 45.8 M67.2 97.01 C75.86 85.4, 86.54 73.09, 103.11 54.12 M66.36 96.69 C76.58 84.03, 85.05 72.95, 104.16 53.11 M71.49 96.15 C82.96 84.07, 92.33 73.5, 103.02 62.71 M72.8 93.69 C84.09 82.1, 95.11 69.44, 101.72 60.41 M78.35 91.49 C84.28 87.75, 91.05 83.69, 103.29 70.03 M79.54 93.04 C85.46 86.89, 90.24 79.43, 101.26 69.03" stroke="#fd7e14" stroke-width="0.5" fill="none"></path><path d="M47.72 -0.71 C55.7 -2.08, 65.51 1.41, 73.33 4.78 C81.15 8.14, 89.39 12.93, 94.64 19.49 C99.88 26.04, 103.91 36.11, 104.81 44.1 C105.71 52.09, 103.51 60.06, 100.03 67.45 C96.54 74.84, 91.09 83.67, 83.9 88.43 C76.72 93.2, 65.75 95.28, 56.93 96.04 C48.11 96.8, 38.93 96.22, 31.01 93 C23.08 89.77, 14.46 83.34, 9.36 76.68 C4.26 70.03, 1.31 61.21, 0.4 53.06 C-0.5 44.92, 0.29 35.18, 3.92 27.84 C7.55 20.49, 14.38 13.45, 22.16 8.98 C29.95 4.52, 45.64 2.26, 50.62 1.05 C55.6 -0.15, 52.3 1.16, 52.03 1.78 M74.11 3.55 C82.04 6.46, 91.43 15.19, 96.28 22.1 C101.12 29, 102.87 37.22, 103.19 44.99 C103.51 52.76, 101.61 61.37, 98.18 68.73 C94.75 76.09, 89.66 84.47, 82.6 89.13 C75.54 93.79, 64.7 96.11, 55.83 96.68 C46.95 97.25, 36.94 95.87, 29.36 92.57 C21.77 89.26, 15.22 83.81, 10.34 76.84 C5.45 69.88, 0.96 59.04, 0.03 50.75 C-0.91 42.45, 0.82 34.35, 4.72 27.1 C8.63 19.86, 16.11 11.79, 23.47 7.27 C30.82 2.76, 40.31 0.44, 48.83 0.02 C57.34 -0.4, 70.38 3.59, 74.55 4.75 C78.72 5.91, 74.32 6.37, 73.84 6.99" stroke="#000000" stroke-width="1" fill="none"></path></g><g stroke-linecap="round" transform="translate(1225.518258473229 443.3143506731308) rotate(0 51.600006103515625 47.199981689453125)"><path d="M5.75 26.2 C5.75 26.2, 5.75 26.2, 5.75 26.2 M5.75 26.2 C5.75 26.2, 5.75 26.2, 5.75 26.2 M4.79 33.3 C10.17 26.15, 18.01 15.17, 23.82 11.94 M2.6 35.41 C12.68 24.7, 19.83 15.7, 25.27 9.04 M1.32 42.11 C11.33 30.64, 24.69 17.85, 34.45 8.83 M1.04 43.58 C8.48 35.41, 13.58 27.94, 33.56 8.28 M-0.58 50.49 C11.41 35.51, 23.29 21, 38.93 2.88 M0.94 50.16 C8.45 41.75, 18.41 30.4, 39.67 3.86 M1.24 53.2 C17.57 35.38, 35.49 16.36, 47.51 3.11 M2.08 54.06 C15.48 40.81, 28.35 24.85, 48.71 0.35 M3.13 59.66 C22.89 39.36, 43.01 14.01, 53.83 4.15 M4.59 58.31 C17.32 42.6, 30.22 26.73, 53.59 3.16 M4.69 63.84 C24.72 41.23, 46.01 17.53, 59.87 3.19 M6.28 63.72 C17.52 48.27, 30.03 34.17, 58.21 3.2 M8.68 68.85 C27.47 42.94, 45.66 20.96, 63.98 2.08 M6.78 67.18 C17.46 54.26, 29.93 39.95, 63.78 2.77 M7.49 72.4 C29.8 44.8, 53.6 19.79, 68.67 2.76 M8.26 70.92 C25.24 53.22, 40.95 34.94, 66.81 4.71 M10.32 75.55 C28.88 56.44, 45.84 34.96, 73.05 6.53 M10.85 74.95 C33.3 50.02, 55.83 23.55, 71.83 5.43 M12.33 77.72 C33.77 54.58, 54.58 30.54, 74.1 5.55 M14.1 77.88 C31.83 56.76, 49.5 36.82, 76.89 6.17 M17.19 78.21 C34.85 60.33, 52.06 40.57, 79.04 9.61 M17.67 80.14 C29.44 65.61, 42.39 51.27, 78.24 9.49 M20.84 84.16 C41.4 59.55, 60.08 37.7, 81.91 9.81 M19.47 81.72 C40.77 59.58, 62.61 35.89, 83.08 10.75 M21.4 84.83 C48.56 56.26, 72.18 28.29, 86.77 11.9 M23.7 86.18 C42.92 62.95, 61.44 39.77, 85.03 13.16 M25.58 89.09 C45.55 65.83, 63.18 45.31, 86.76 16.49 M25.6 87.91 C45.53 65.11, 66.51 42.35, 89.49 15.74 M31.28 90.9 C49.9 65.61, 69.29 44.99, 92.04 19.53 M30.23 91.37 C52.38 64.51, 74.77 36.24, 91.76 19.56 M35.32 93.34 C54.85 67.88, 73.1 44.77, 92.88 21.08 M34.52 90.81 C52.36 70.46, 70.56 50.79, 94.45 22.3 M36.7 93.87 C54.78 72.79, 72.37 54.29, 98.22 22.83 M38.73 91.34 C49.54 78.81, 61.67 64.54, 98.21 23.41 M44.42 92.28 C64.51 70.93, 85.98 47.04, 100.8 27.08 M42.51 92.63 C56.28 78.69, 69.38 62.07, 99.2 28.97 M46.56 93.24 C65.4 75.39, 82.08 52.55, 98.98 34.45 M48.31 95.17 C63.96 76.4, 81.39 55.85, 101.09 33.09 M50.21 94.77 C62.85 80.39, 75.33 67.57, 101.93 38.95 M51.44 94.5 C61.87 82.87, 73.01 72.03, 102.52 36.69 M57.24 96.25 C68.64 83.8, 79 68.19, 105.47 40.45 M56.21 95.01 C72.64 77.54, 87.73 59.8, 103.2 41.78 M63.49 91.15 C77.14 81.41, 86.58 68.85, 105.24 47.17 M65.27 92.37 C79.62 74.47, 95.1 56.92, 105.33 45.71 M71.33 91.33 C82.36 78.3, 92.32 66.7, 103.21 53.72 M72.48 89.62 C83.75 75.17, 97.13 61.53, 104.35 52.89 M80.06 87.5 C85.51 81.51, 91.93 76, 104.74 58.51 M79.57 87.34 C86.29 79.93, 92.85 71.39, 102.25 60.01" stroke="#fd7e14" stroke-width="0.5" fill="none"></path><path d="M47.85 0.68 C55.8 -0.4, 66.45 0.88, 74.27 4.39 C82.1 7.9, 90.05 15.22, 94.81 21.73 C99.58 28.25, 102.23 35.61, 102.86 43.48 C103.49 51.35, 102.52 61.88, 98.59 68.96 C94.67 76.04, 86.61 81.67, 79.33 85.96 C72.04 90.25, 63.42 94.13, 54.89 94.7 C46.36 95.26, 35.81 92.99, 28.12 89.38 C20.44 85.77, 13.57 79.7, 8.8 73.03 C4.02 66.37, -0.03 57.24, -0.52 49.41 C-1 41.58, 1.8 32.8, 5.87 26.06 C9.94 19.31, 15.64 13.11, 23.9 8.93 C32.15 4.75, 49.05 2.12, 55.4 0.96 C61.76 -0.19, 61.9 1.39, 62.04 1.99 M47.28 0.9 C55.31 -0.25, 64.19 1.22, 71.72 4.23 C79.25 7.25, 87.08 12.48, 92.45 19.01 C97.82 25.55, 102.97 35.46, 103.94 43.45 C104.92 51.44, 102.06 59.79, 98.3 66.95 C94.54 74.12, 88.13 81.66, 81.37 86.44 C74.61 91.22, 66.32 95.19, 57.74 95.64 C49.16 96.08, 38.05 92.64, 29.9 89.1 C21.76 85.56, 13.75 80.84, 8.85 74.42 C3.95 67.99, 1.21 58.4, 0.52 50.56 C-0.16 42.71, 1.35 34.36, 4.75 27.35 C8.15 20.33, 14.1 12.8, 20.93 8.48 C27.76 4.15, 41.64 2.75, 45.74 1.39 C49.84 0.04, 45.45 -0.15, 45.52 0.36" stroke="#000000" stroke-width="1" fill="none"></path></g><g stroke-linecap="round"><g transform="translate(1275.5985540422269 405.5957678573841) rotate(0 1.17038183190391 17.241200999161265)"><path d="M0.84 -0.16 C1.42 5.69, 2.47 28.7, 2.51 34.84 M-0.17 -1.28 C0.4 4.69, 2 29.76, 2.04 35.77" stroke="#000000" stroke-width="1" fill="none"></path></g></g><mask></mask><g stroke-linecap="round"><g transform="translate(1162.2761457026893 250.94047739693258) rotate(0 -12.098920210722895 27.025474399148663)"><path d="M-0.23 0.01 C-3.99 9.19, -19.09 44.68, -22.81 53.88 M-1.81 -1.03 C-5.74 8.4, -20.37 46.04, -23.97 55.08" stroke="#000000" stroke-width="1" fill="none"></path></g></g><mask></mask><g stroke-linecap="round"><g transform="translate(1226.2993123654376 252.30772744948945) rotate(0 19.634587546766625 28.22926775248058)"><path d="M0.01 -0.41 C6.6 9.08, 31.73 47.29, 38.33 56.66 M-1.44 -1.66 C5.64 8.03, 33.93 48.41, 40.71 58.12" stroke="#000000" stroke-width="1" fill="none"></path></g></g><mask></mask><g stroke-linecap="round" transform="translate(1048.4325149778333 283.92852783203125) rotate(0 153.0000348772321 159.5)"><path d="M32 0 M32 0 C94.5 -3.3, 159.77 -0.78, 274 0 M274 0 C295.73 1.05, 305.61 12.4, 306 32 M306 32 C309.24 129.99, 307.13 229.41, 306 287 M306 287 C304.21 309.45, 294.75 319.54, 274 319 M274 319 C193.49 320.68, 113.91 320.13, 32 319 M32 319 C9.96 319.97, -0.84 308.7, 0 287 M0 287 C1.07 187.26, -0.84 88.71, 0 32 M0 32 C0.69 10.59, 11.27 -0.92, 32 0" stroke="#000000" stroke-width="1.5" fill="none" stroke-dasharray="8 9"></path></g><g transform="translate(1076.2184123690165 537.2143162318638) rotate(0 56.5 20)"><text x="0" y="14" font-family="Virgil, Segoe UI Emoji" font-size="16px" fill="#000000" text-anchor="start" style="white-space: pre;" direction="ltr">Shadow Tree</text><text x="0" y="34" font-family="Virgil, Segoe UI Emoji" font-size="16px" fill="#000000" text-anchor="start" style="white-space: pre;" direction="ltr">(Shadow DOM)</text></g></svg>